<svg width="115" height="113" viewBox="0 0 115 113" fill="none" xmlns="http://www.w3.org/2000/svg">
<ellipse cx="57.5" cy="56.5" rx="57.5" ry="56.5" fill="black"/>
<g filter="url(#filter0_i_241_1035)"> -->
<ellipse cx="57.5" cy="56.5" rx="52.5" ry="51.5" fill="#71FFD8"/>
</g>
<path d="M11.929 57V42.4545H22.071V45.3097H15.4446V48.2926H21.5526V51.1548H15.4446V54.1449H22.071V57H11.929ZM27.831 42.4545L30.4872 47.0497H30.6009L33.2855 42.4545H37.2202L32.831 49.7273L37.3622 57H33.3281L30.6009 52.3551H30.4872L27.7599 57H23.7543L28.2642 49.7273L23.8679 42.4545H27.831ZM39.0384 57V42.4545H45.0469C46.1359 42.4545 47.0758 42.6676 47.8665 43.0938C48.6619 43.5152 49.2751 44.1046 49.706 44.8622C50.1368 45.6151 50.3523 46.491 50.3523 47.4901C50.3523 48.4938 50.1321 49.3722 49.6918 50.125C49.2562 50.8731 48.6335 51.4531 47.8239 51.8651C47.0142 52.277 46.053 52.483 44.9403 52.483H41.233V49.7131H44.2869C44.8172 49.7131 45.2599 49.6207 45.6151 49.4361C45.9749 49.2514 46.2472 48.9934 46.4318 48.6619C46.6165 48.3258 46.7088 47.9351 46.7088 47.4901C46.7088 47.0402 46.6165 46.652 46.4318 46.3253C46.2472 45.9938 45.9749 45.7382 45.6151 45.5582C45.2552 45.3783 44.8125 45.2884 44.2869 45.2884H42.554V57H39.0384ZM52.0852 57V42.4545H55.6009V54.1449H61.652V57H52.0852ZM76.6342 49.7273C76.6342 51.3277 76.3265 52.6842 75.7109 53.7969C75.0954 54.9096 74.2621 55.7547 73.2109 56.3324C72.1645 56.91 70.9903 57.1989 69.6882 57.1989C68.3814 57.1989 67.2048 56.9077 66.1584 56.3253C65.112 55.7429 64.281 54.8977 63.6655 53.7898C63.0547 52.6771 62.7493 51.3229 62.7493 49.7273C62.7493 48.1269 63.0547 46.7704 63.6655 45.6577C64.281 44.545 65.112 43.6998 66.1584 43.1222C67.2048 42.5445 68.3814 42.2557 69.6882 42.2557C70.9903 42.2557 72.1645 42.5445 73.2109 43.1222C74.2621 43.6998 75.0954 44.545 75.7109 45.6577C76.3265 46.7704 76.6342 48.1269 76.6342 49.7273ZM73.0405 49.7273C73.0405 48.7803 72.9055 47.9801 72.6357 47.3267C72.3705 46.6733 71.987 46.1785 71.4851 45.8423C70.9879 45.5062 70.389 45.3381 69.6882 45.3381C68.9922 45.3381 68.3932 45.5062 67.8913 45.8423C67.3894 46.1785 67.0036 46.6733 66.7337 47.3267C66.4685 47.9801 66.3359 48.7803 66.3359 49.7273C66.3359 50.6742 66.4685 51.4744 66.7337 52.1278C67.0036 52.7812 67.3894 53.276 67.8913 53.6122C68.3932 53.9484 68.9922 54.1165 69.6882 54.1165C70.389 54.1165 70.9879 53.9484 71.4851 53.6122C71.987 53.276 72.3705 52.7812 72.6357 52.1278C72.9055 51.4744 73.0405 50.6742 73.0405 49.7273ZM78.6868 57V42.4545H84.6953C85.7843 42.4545 86.7242 42.651 87.5149 43.044C88.3104 43.4323 88.9235 43.991 89.3544 44.7202C89.7853 45.4446 90.0007 46.304 90.0007 47.2983C90.0007 48.3068 89.7805 49.1638 89.3402 49.8693C88.8999 50.5701 88.2749 51.1051 87.4652 51.4744C86.6555 51.839 85.6967 52.0213 84.5888 52.0213H80.7891V49.2514H83.9354C84.4657 49.2514 84.9084 49.1828 85.2635 49.0455C85.6233 48.9034 85.8956 48.6903 86.0803 48.4062C86.2649 48.1174 86.3572 47.7481 86.3572 47.2983C86.3572 46.8485 86.2649 46.4768 86.0803 46.1832C85.8956 45.8849 85.6233 45.6624 85.2635 45.5156C84.9036 45.3641 84.4609 45.2884 83.9354 45.2884H82.2024V57H78.6868ZM86.8757 50.3523L90.4979 57H86.6626L83.1115 50.3523H86.8757ZM91.929 57V42.4545H102.071V45.3097H95.4446V48.2926H101.553V51.1548H95.4446V54.1449H102.071V57H91.929ZM45.0114 66.4545V81H42.0284L36.2401 72.6051H36.1477V81H32.6321V66.4545H35.6577L41.3821 74.8352H41.5028V66.4545H45.0114ZM60.9506 73.7273C60.9506 75.3277 60.6429 76.6842 60.0273 77.7969C59.4118 78.9096 58.5785 79.7547 57.5273 80.3324C56.4809 80.91 55.3067 81.1989 54.0046 81.1989C52.6978 81.1989 51.5212 80.9077 50.4748 80.3253C49.4284 79.7429 48.5974 78.8977 47.9819 77.7898C47.3711 76.6771 47.0657 75.3229 47.0657 73.7273C47.0657 72.1269 47.3711 70.7704 47.9819 69.6577C48.5974 68.545 49.4284 67.6998 50.4748 67.1222C51.5212 66.5445 52.6978 66.2557 54.0046 66.2557C55.3067 66.2557 56.4809 66.5445 57.5273 67.1222C58.5785 67.6998 59.4118 68.545 60.0273 69.6577C60.6429 70.7704 60.9506 72.1269 60.9506 73.7273ZM57.3569 73.7273C57.3569 72.7803 57.2219 71.9801 56.9521 71.3267C56.6869 70.6733 56.3034 70.1785 55.8015 69.8423C55.3043 69.5062 54.7054 69.3381 54.0046 69.3381C53.3086 69.3381 52.7096 69.5062 52.2077 69.8423C51.7058 70.1785 51.32 70.6733 51.0501 71.3267C50.7849 71.9801 50.6523 72.7803 50.6523 73.7273C50.6523 74.6742 50.7849 75.4744 51.0501 76.1278C51.32 76.7812 51.7058 77.276 52.2077 77.6122C52.7096 77.9484 53.3086 78.1165 54.0046 78.1165C54.7054 78.1165 55.3043 77.9484 55.8015 77.6122C56.3034 77.276 56.6869 76.7812 56.9521 76.1278C57.2219 75.4744 57.3569 74.6742 57.3569 73.7273ZM65.7678 81L61.5348 66.4545H65.4197L67.6143 75.9858H67.7351L70.2422 66.4545H73.4098L75.9169 76.0071H76.0376L78.2393 66.4545H82.1172L77.8913 81H74.5036L71.8828 72.179H71.7692L69.1484 81H65.7678Z" fill="black"/>
<defs>
<filter id="filter0_i_241_1035" x="5" y="5" width="110" height="108" filterUnits="userSpaceOnUse" color-interpolation-filters="sRGB">
<feFlood flood-opacity="0" result="BackgroundImageFix"/>
<feBlend mode="normal" in="SourceGraphic" in2="BackgroundImageFix" result="shape"/>
<feColorMatrix in="SourceAlpha" type="matrix" values="0 0 0 0 0 0 0 0 0 0 0 0 0 0 0 0 0 0 127 0" result="hardAlpha"/>
<feOffset dx="15" dy="10"/>
<feGaussianBlur stdDeviation="2.5"/>
<feComposite in2="hardAlpha" operator="arithmetic" k2="-1" k3="1"/>
<feColorMatrix type="matrix" values="0 0 0 0 0 0 0 0 0 0 0 0 0 0 0 0 0 0 0.25 0"/>
<feBlend mode="normal" in2="shape" result="effect1_innerShadow_241_1035"/>
</filter>
</defs>
</svg>
