<svg width="388" height="188" viewBox="0 0 388 188" fill="none" xmlns="http://www.w3.org/2000/svg">
<g filter="url(#filter0_d_381_624)">
<rect x="34" y="6" width="348" height="148" rx="10" fill="white" shape-rendering="crispEdges"/>
<rect x="64.5" y="43.5" width="72" height="72" rx="4" fill="#EBF9FF"/>
<path d="M112.167 74.5C112.167 72.968 111.865 71.4509 111.279 70.0354C110.692 68.6199 109.833 67.3338 108.749 66.2505C107.666 65.1671 106.38 64.3078 104.965 63.7214C103.549 63.1351 102.032 62.8334 100.5 62.8334C98.9678 62.8334 97.4507 63.1351 96.0353 63.7214C94.6198 64.3078 93.3337 65.1671 92.2503 66.2505C91.167 67.3338 90.3076 68.6199 89.7213 70.0354C89.135 71.4509 88.8333 72.968 88.8333 74.5C88.8333 76.8117 89.5149 78.9617 90.6749 80.775H90.6616L100.5 96.1667L110.338 80.775H110.327C111.528 78.9027 112.167 76.7247 112.167 74.5ZM100.5 79.5C99.1738 79.5 97.9021 78.9733 96.9644 78.0356C96.0267 77.0979 95.4999 75.8261 95.4999 74.5C95.4999 73.174 96.0267 71.9022 96.9644 70.9645C97.9021 70.0268 99.1738 69.5 100.5 69.5C101.826 69.5 103.098 70.0268 104.035 70.9645C104.973 71.9022 105.5 73.174 105.5 74.5C105.5 75.8261 104.973 77.0979 104.035 78.0356C103.098 78.9733 101.826 79.5 100.5 79.5Z" fill="#00B2FF"/>
<path d="M162.761 50H160.898L165.085 38.3636H167.114L171.301 50H169.438L166.148 40.4773H166.057L162.761 50ZM163.074 45.4432H169.119V46.9205H163.074V45.4432ZM175.972 50.1705C175.267 50.1705 174.638 49.9905 174.085 49.6307C173.536 49.267 173.104 48.75 172.79 48.0795C172.479 47.4053 172.324 46.5966 172.324 45.6534C172.324 44.7102 172.481 43.9034 172.795 43.233C173.114 42.5625 173.549 42.0492 174.102 41.6932C174.655 41.3371 175.282 41.1591 175.983 41.1591C176.525 41.1591 176.96 41.25 177.29 41.4318C177.623 41.6098 177.881 41.8182 178.062 42.0568C178.248 42.2955 178.392 42.5057 178.494 42.6875H178.597V38.3636H180.295V50H178.636V48.642H178.494C178.392 48.8277 178.244 49.0398 178.051 49.2784C177.862 49.517 177.6 49.7254 177.267 49.9034C176.934 50.0814 176.502 50.1705 175.972 50.1705ZM176.347 48.7216C176.835 48.7216 177.248 48.5928 177.585 48.3352C177.926 48.0739 178.184 47.7121 178.358 47.25C178.536 46.7879 178.625 46.25 178.625 45.6364C178.625 45.0303 178.538 44.5 178.364 44.0455C178.189 43.5909 177.934 43.2367 177.597 42.983C177.259 42.7292 176.843 42.6023 176.347 42.6023C175.835 42.6023 175.409 42.7348 175.068 43C174.727 43.2652 174.47 43.6269 174.295 44.0852C174.125 44.5436 174.04 45.0606 174.04 45.6364C174.04 46.2197 174.127 46.7443 174.301 47.2102C174.475 47.6761 174.733 48.0455 175.074 48.3182C175.419 48.5871 175.843 48.7216 176.347 48.7216ZM185.987 50.1705C185.283 50.1705 184.654 49.9905 184.101 49.6307C183.552 49.267 183.12 48.75 182.805 48.0795C182.495 47.4053 182.339 46.5966 182.339 45.6534C182.339 44.7102 182.497 43.9034 182.811 43.233C183.129 42.5625 183.565 42.0492 184.118 41.6932C184.671 41.3371 185.298 41.1591 185.999 41.1591C186.54 41.1591 186.976 41.25 187.305 41.4318C187.639 41.6098 187.896 41.8182 188.078 42.0568C188.264 42.2955 188.408 42.5057 188.51 42.6875H188.612V38.3636H190.311V50H188.652V48.642H188.51C188.408 48.8277 188.26 49.0398 188.067 49.2784C187.877 49.517 187.616 49.7254 187.283 49.9034C186.949 50.0814 186.518 50.1705 185.987 50.1705ZM186.362 48.7216C186.851 48.7216 187.264 48.5928 187.601 48.3352C187.942 48.0739 188.199 47.7121 188.374 47.25C188.552 46.7879 188.641 46.25 188.641 45.6364C188.641 45.0303 188.554 44.5 188.379 44.0455C188.205 43.5909 187.949 43.2367 187.612 42.983C187.275 42.7292 186.858 42.6023 186.362 42.6023C185.851 42.6023 185.425 42.7348 185.084 43C184.743 43.2652 184.485 43.6269 184.311 44.0852C184.141 44.5436 184.055 45.0606 184.055 45.6364C184.055 46.2197 184.143 46.7443 184.317 47.2102C184.491 47.6761 184.749 48.0455 185.089 48.3182C185.434 48.5871 185.858 48.7216 186.362 48.7216ZM192.736 50V41.2727H194.378V42.6591H194.469C194.628 42.1894 194.908 41.8201 195.31 41.5511C195.715 41.2784 196.173 41.142 196.685 41.142C196.791 41.142 196.916 41.1458 197.06 41.1534C197.207 41.161 197.323 41.1705 197.406 41.1818V42.8068C197.338 42.7879 197.217 42.767 197.043 42.7443C196.868 42.7178 196.694 42.7045 196.52 42.7045C196.118 42.7045 195.76 42.7898 195.446 42.9602C195.135 43.1269 194.889 43.3598 194.707 43.6591C194.526 43.9545 194.435 44.2917 194.435 44.6705V50H192.736ZM202.325 50.1761C201.465 50.1761 200.725 49.9924 200.104 49.625C199.486 49.2538 199.009 48.733 198.672 48.0625C198.339 47.3883 198.172 46.5985 198.172 45.6932C198.172 44.7992 198.339 44.0114 198.672 43.3295C199.009 42.6477 199.479 42.1155 200.081 41.733C200.687 41.3504 201.395 41.1591 202.206 41.1591C202.698 41.1591 203.176 41.2405 203.638 41.4034C204.1 41.5663 204.515 41.822 204.882 42.1705C205.25 42.5189 205.539 42.9716 205.751 43.5284C205.964 44.0814 206.07 44.7538 206.07 45.5455V46.1477H199.132V44.875H204.405C204.405 44.428 204.314 44.0322 204.132 43.6875C203.95 43.339 203.695 43.0644 203.365 42.8636C203.039 42.6629 202.657 42.5625 202.217 42.5625C201.74 42.5625 201.323 42.6799 200.967 42.9148C200.615 43.1458 200.342 43.4489 200.149 43.8239C199.96 44.1951 199.865 44.5985 199.865 45.0341V46.0284C199.865 46.6117 199.967 47.108 200.172 47.517C200.38 47.9261 200.67 48.2386 201.041 48.4545C201.412 48.6667 201.846 48.7727 202.342 48.7727C202.664 48.7727 202.958 48.7273 203.223 48.6364C203.488 48.5417 203.717 48.4015 203.911 48.2159C204.104 48.0303 204.251 47.8011 204.354 47.5284L205.962 47.8182C205.833 48.2917 205.602 48.7064 205.268 49.0625C204.939 49.4148 204.524 49.6894 204.024 49.8864C203.528 50.0795 202.962 50.1761 202.325 50.1761ZM214.494 43.4034L212.955 43.6761C212.89 43.4792 212.788 43.2917 212.648 43.1136C212.511 42.9356 212.326 42.7898 212.091 42.6761C211.856 42.5625 211.563 42.5057 211.21 42.5057C210.729 42.5057 210.328 42.6136 210.006 42.8295C209.684 43.0417 209.523 43.3163 209.523 43.6534C209.523 43.9451 209.631 44.1799 209.847 44.358C210.063 44.536 210.411 44.6818 210.892 44.7955L212.278 45.1136C213.081 45.2992 213.68 45.5852 214.074 45.9716C214.468 46.358 214.665 46.8598 214.665 47.4773C214.665 48 214.513 48.4659 214.21 48.875C213.911 49.2803 213.492 49.5985 212.955 49.8295C212.42 50.0606 211.801 50.1761 211.097 50.1761C210.119 50.1761 209.322 49.9678 208.705 49.5511C208.087 49.1307 207.708 48.5341 207.568 47.7614L209.21 47.5114C209.313 47.9394 209.523 48.2633 209.841 48.483C210.159 48.6989 210.574 48.8068 211.085 48.8068C211.642 48.8068 212.087 48.6913 212.42 48.4602C212.754 48.2254 212.92 47.9394 212.92 47.6023C212.92 47.3295 212.818 47.1004 212.614 46.9148C212.413 46.7292 212.104 46.589 211.688 46.4943L210.21 46.1705C209.396 45.9848 208.794 45.6894 208.403 45.2841C208.017 44.8788 207.824 44.3655 207.824 43.7443C207.824 43.2292 207.968 42.7784 208.256 42.392C208.544 42.0057 208.941 41.7045 209.449 41.4886C209.956 41.2689 210.538 41.1591 211.193 41.1591C212.136 41.1591 212.879 41.3636 213.42 41.7727C213.962 42.178 214.32 42.7216 214.494 43.4034ZM223.072 43.4034L221.533 43.6761C221.468 43.4792 221.366 43.2917 221.226 43.1136C221.089 42.9356 220.904 42.7898 220.669 42.6761C220.434 42.5625 220.141 42.5057 219.788 42.5057C219.307 42.5057 218.906 42.6136 218.584 42.8295C218.262 43.0417 218.101 43.3163 218.101 43.6534C218.101 43.9451 218.209 44.1799 218.425 44.358C218.641 44.536 218.989 44.6818 219.47 44.7955L220.857 45.1136C221.66 45.2992 222.258 45.5852 222.652 45.9716C223.046 46.358 223.243 46.8598 223.243 47.4773C223.243 48 223.091 48.4659 222.788 48.875C222.489 49.2803 222.071 49.5985 221.533 49.8295C220.999 50.0606 220.379 50.1761 219.675 50.1761C218.697 50.1761 217.9 49.9678 217.283 49.5511C216.665 49.1307 216.286 48.5341 216.146 47.7614L217.788 47.5114C217.891 47.9394 218.101 48.2633 218.419 48.483C218.737 48.6989 219.152 48.8068 219.663 48.8068C220.22 48.8068 220.665 48.6913 220.999 48.4602C221.332 48.2254 221.499 47.9394 221.499 47.6023C221.499 47.3295 221.396 47.1004 221.192 46.9148C220.991 46.7292 220.682 46.589 220.266 46.4943L218.788 46.1705C217.974 45.9848 217.372 45.6894 216.982 45.2841C216.595 44.8788 216.402 44.3655 216.402 43.7443C216.402 43.2292 216.546 42.7784 216.834 42.392C217.122 42.0057 217.519 41.7045 218.027 41.4886C218.535 41.2689 219.116 41.1591 219.771 41.1591C220.714 41.1591 221.457 41.3636 221.999 41.7727C222.54 42.178 222.898 42.7216 223.072 43.4034ZM230.464 50.108C230.154 50.108 229.887 49.9981 229.663 49.7784C229.44 49.5549 229.328 49.286 229.328 48.9716C229.328 48.661 229.44 48.3958 229.663 48.1761C229.887 47.9527 230.154 47.8409 230.464 47.8409C230.775 47.8409 231.042 47.9527 231.266 48.1761C231.489 48.3958 231.601 48.661 231.601 48.9716C231.601 49.1799 231.548 49.3712 231.442 49.5455C231.339 49.7159 231.203 49.8523 231.033 49.9545C230.862 50.0568 230.673 50.108 230.464 50.108ZM230.464 43.7557C230.154 43.7557 229.887 43.6439 229.663 43.4205C229.44 43.197 229.328 42.9299 229.328 42.6193C229.328 42.3087 229.44 42.0436 229.663 41.8239C229.887 41.6004 230.154 41.4886 230.464 41.4886C230.775 41.4886 231.042 41.6004 231.266 41.8239C231.489 42.0436 231.601 42.3087 231.601 42.6193C231.601 42.8277 231.548 43.0189 231.442 43.1932C231.339 43.3636 231.203 43.5 231.033 43.6023C230.862 43.7045 230.673 43.7557 230.464 43.7557Z" fill="black"/>
<path d="M165.372 80L167.043 69.8182H168.037L166.366 80H165.372ZM160.739 77.1761L160.898 76.1818H168.494L168.335 77.1761H160.739ZM161.793 80L163.463 69.8182H164.457L162.787 80H161.793ZM161.335 73.6364L161.494 72.642H169.091L168.932 73.6364H161.335ZM173.767 80.1392C173.349 80.1326 172.931 80.053 172.514 79.9006C172.096 79.7481 171.715 79.4912 171.37 79.13C171.026 78.7654 170.749 78.2732 170.54 77.6534C170.331 77.0303 170.227 76.2481 170.227 75.3068C170.227 74.4053 170.311 73.6065 170.48 72.9105C170.65 72.2112 170.895 71.6229 171.216 71.1456C171.538 70.665 171.926 70.3004 172.38 70.0518C172.837 69.8033 173.352 69.679 173.926 69.679C174.496 69.679 175.003 69.7933 175.447 70.022C175.895 70.2474 176.259 70.5623 176.541 70.9666C176.823 71.371 177.005 71.8366 177.088 72.3636H175.875C175.762 71.9062 175.543 71.5268 175.218 71.2251C174.894 70.9235 174.463 70.7727 173.926 70.7727C173.137 70.7727 172.516 71.1158 172.061 71.8018C171.611 72.4879 171.384 73.4508 171.38 74.6903H171.46C171.645 74.4086 171.866 74.1683 172.121 73.9695C172.38 73.7673 172.665 73.6115 172.976 73.5021C173.288 73.3928 173.618 73.3381 173.966 73.3381C174.549 73.3381 175.083 73.4839 175.566 73.7756C176.05 74.0639 176.438 74.4633 176.73 74.9737C177.021 75.4808 177.167 76.0625 177.167 76.7188C177.167 77.3485 177.026 77.9252 176.745 78.4489C176.463 78.9692 176.067 79.3835 175.556 79.6918C175.049 79.9967 174.453 80.1458 173.767 80.1392ZM173.767 79.0455C174.184 79.0455 174.559 78.9411 174.89 78.7322C175.225 78.5234 175.489 78.2434 175.681 77.892C175.876 77.5407 175.974 77.1496 175.974 76.7188C175.974 76.2978 175.88 75.915 175.691 75.5703C175.505 75.2223 175.248 74.9455 174.92 74.7401C174.595 74.5346 174.224 74.4318 173.806 74.4318C173.492 74.4318 173.198 74.4948 172.926 74.6207C172.655 74.7434 172.416 74.9124 172.211 75.1278C172.008 75.3433 171.849 75.5902 171.733 75.8686C171.617 76.1437 171.559 76.4337 171.559 76.7386C171.559 77.143 171.654 77.5208 171.843 77.8722C172.035 78.2235 172.297 78.5069 172.628 78.7223C172.963 78.9377 173.342 79.0455 173.767 79.0455ZM182.364 69.679C182.781 69.6823 183.199 69.7618 183.617 69.9176C184.034 70.0734 184.415 70.3319 184.76 70.6932C185.105 71.0511 185.382 71.54 185.59 72.1598C185.799 72.7796 185.904 73.5568 185.904 74.4915C185.904 75.3963 185.817 76.2 185.645 76.9027C185.476 77.602 185.231 78.192 184.909 78.6726C184.591 79.1532 184.203 79.5178 183.746 79.7663C183.292 80.0149 182.778 80.1392 182.205 80.1392C181.635 80.1392 181.126 80.0265 180.678 79.8011C180.234 79.5724 179.87 79.2559 179.585 78.8516C179.303 78.4439 179.122 77.9716 179.043 77.4347H180.256C180.365 77.902 180.582 78.2881 180.907 78.593C181.235 78.8946 181.668 79.0455 182.205 79.0455C182.99 79.0455 183.61 78.7024 184.064 78.0163C184.521 77.3303 184.75 76.3608 184.75 75.108H184.671C184.485 75.3864 184.265 75.6267 184.009 75.8288C183.754 76.031 183.471 76.1868 183.159 76.2962C182.848 76.4055 182.516 76.4602 182.165 76.4602C181.582 76.4602 181.046 76.3161 180.559 76.0277C180.075 75.736 179.687 75.3366 179.396 74.8295C179.107 74.3191 178.963 73.7358 178.963 73.0795C178.963 72.4564 179.102 71.8864 179.381 71.3693C179.663 70.849 180.057 70.4347 180.564 70.1264C181.075 69.8182 181.674 69.669 182.364 69.679ZM182.364 70.7727C181.946 70.7727 181.57 70.8771 181.235 71.0859C180.904 71.2914 180.64 71.5698 180.445 71.9212C180.253 72.2692 180.156 72.6553 180.156 73.0795C180.156 73.5038 180.249 73.8899 180.435 74.2379C180.624 74.5826 180.881 74.8577 181.205 75.0632C181.534 75.2654 181.906 75.3665 182.324 75.3665C182.639 75.3665 182.932 75.3052 183.204 75.1825C183.476 75.0566 183.713 74.8859 183.915 74.6705C184.12 74.4517 184.281 74.2048 184.397 73.9297C184.513 73.6513 184.571 73.3613 184.571 73.0597C184.571 72.6619 184.475 72.2891 184.283 71.9411C184.094 71.593 183.832 71.3113 183.497 71.0959C183.166 70.8804 182.788 70.7727 182.364 70.7727ZM187.859 80V79.1051L191.219 75.4261C191.614 74.9953 191.939 74.6207 192.194 74.3026C192.449 73.9811 192.638 73.6795 192.761 73.3977C192.887 73.1127 192.95 72.8144 192.95 72.5028C192.95 72.1449 192.863 71.835 192.691 71.5732C192.522 71.3113 192.29 71.1091 191.995 70.9666C191.7 70.8241 191.369 70.7528 191.001 70.7528C190.61 70.7528 190.268 70.834 189.977 70.9964C189.688 71.1555 189.464 71.3793 189.305 71.6676C189.15 71.956 189.072 72.294 189.072 72.6818H187.898C187.898 72.0852 188.036 71.5616 188.311 71.1108C188.586 70.66 188.961 70.3087 189.435 70.0568C189.912 69.8049 190.447 69.679 191.04 69.679C191.637 69.679 192.166 69.8049 192.626 70.0568C193.087 70.3087 193.448 70.6484 193.71 71.076C193.972 71.5036 194.103 71.9792 194.103 72.5028C194.103 72.8774 194.035 73.2436 193.899 73.6016C193.767 73.9562 193.535 74.3523 193.203 74.7898C192.875 75.224 192.419 75.7543 191.836 76.3807L189.549 78.8267V78.9062H194.282V80H187.859ZM198.105 78.608L198.026 79.1449C197.969 79.5227 197.883 79.9271 197.767 80.358C197.654 80.7888 197.537 81.1948 197.414 81.576C197.291 81.9571 197.19 82.2604 197.111 82.4858H196.216C196.259 82.2737 196.315 81.9936 196.385 81.6456C196.455 81.2976 196.524 80.9081 196.594 80.4773C196.667 80.0497 196.726 79.6122 196.773 79.1648L196.832 78.608H198.105ZM204.376 80V69.8182H205.608V74.8693H205.728L210.302 69.8182H211.912L207.637 74.4119L211.912 80H210.421L206.881 75.267L205.608 76.6989V80H204.376ZM215.596 80.179C215.113 80.179 214.673 80.0878 214.279 79.9055C213.885 79.7199 213.571 79.4531 213.339 79.1051C213.107 78.7538 212.991 78.3295 212.991 77.8324C212.991 77.3949 213.077 77.0402 213.25 76.7685C213.422 76.4934 213.653 76.2779 213.941 76.1222C214.229 75.9664 214.547 75.8504 214.895 75.7741C215.247 75.6946 215.6 75.6316 215.954 75.5852C216.418 75.5256 216.795 75.4808 217.083 75.451C217.375 75.4179 217.587 75.3632 217.719 75.2869C217.855 75.2107 217.923 75.0781 217.923 74.8892V74.8494C217.923 74.3589 217.789 73.9777 217.52 73.706C217.255 73.4342 216.853 73.2983 216.312 73.2983C215.752 73.2983 215.313 73.4209 214.995 73.6662C214.677 73.9115 214.453 74.1733 214.324 74.4517L213.21 74.054C213.409 73.59 213.674 73.2287 214.006 72.9702C214.34 72.7083 214.705 72.526 215.099 72.4233C215.497 72.3172 215.888 72.2642 216.273 72.2642C216.518 72.2642 216.8 72.294 217.118 72.3537C217.439 72.41 217.749 72.5277 218.047 72.7067C218.349 72.8857 218.599 73.1558 218.798 73.517C218.997 73.8783 219.096 74.3622 219.096 74.9688V80H217.923V78.9659H217.863C217.784 79.1316 217.651 79.3089 217.466 79.4979C217.28 79.6868 217.033 79.8475 216.725 79.9801C216.417 80.1127 216.041 80.179 215.596 80.179ZM215.775 79.125C216.239 79.125 216.631 79.0339 216.949 78.8516C217.27 78.6693 217.512 78.4339 217.675 78.1456C217.84 77.8572 217.923 77.554 217.923 77.2358V76.1619C217.873 76.2216 217.764 76.2763 217.595 76.326C217.429 76.3724 217.237 76.4138 217.018 76.4503C216.803 76.4834 216.592 76.5133 216.387 76.5398C216.185 76.563 216.021 76.5829 215.895 76.5994C215.59 76.6392 215.305 76.7038 215.04 76.7933C214.778 76.8795 214.566 77.0104 214.403 77.1861C214.244 77.3584 214.165 77.5937 214.165 77.892C214.165 78.2997 214.315 78.608 214.617 78.8168C214.922 79.0223 215.308 79.125 215.775 79.125ZM221.72 82.8636C221.521 82.8636 221.344 82.8471 221.188 82.8139C221.032 82.7841 220.925 82.7543 220.865 82.7244L221.163 81.6903C221.448 81.7633 221.7 81.7898 221.919 81.7699C222.138 81.75 222.332 81.6522 222.501 81.4766C222.673 81.3042 222.83 81.0241 222.973 80.6364L223.192 80.0398L220.368 72.3636H221.641L223.749 78.4489H223.828L225.936 72.3636H227.209L223.967 81.1136C223.821 81.508 223.641 81.8345 223.425 82.093C223.21 82.3549 222.96 82.5488 222.675 82.6747C222.393 82.8007 222.075 82.8636 221.72 82.8636ZM228.377 80H227.085L230.823 69.8182H232.096L235.835 80H234.542L231.499 71.429H231.42L228.377 80ZM228.854 76.0227H234.065V77.1165H228.854V76.0227ZM237.261 80V72.3636H238.395V73.517H238.474C238.614 73.1392 238.866 72.8326 239.23 72.5973C239.595 72.362 240.006 72.2443 240.463 72.2443C240.549 72.2443 240.657 72.246 240.786 72.2493C240.915 72.2526 241.013 72.2576 241.08 72.2642V73.4574C241.04 73.4474 240.949 73.4325 240.806 73.4126C240.667 73.3894 240.519 73.3778 240.364 73.3778C239.992 73.3778 239.661 73.4557 239.369 73.6115C239.081 73.764 238.852 73.9761 238.683 74.2479C238.518 74.5163 238.435 74.8229 238.435 75.1676V80H237.261ZM242.47 80V72.3636H243.604V73.517H243.683C243.823 73.1392 244.075 72.8326 244.439 72.5973C244.804 72.362 245.215 72.2443 245.672 72.2443C245.758 72.2443 245.866 72.246 245.995 72.2493C246.124 72.2526 246.222 72.2576 246.289 72.2642V73.4574C246.249 73.4474 246.158 73.4325 246.015 73.4126C245.876 73.3894 245.728 73.3778 245.573 73.3778C245.201 73.3778 244.87 73.4557 244.578 73.6115C244.29 73.764 244.061 73.9761 243.892 74.2479C243.727 74.5163 243.644 74.8229 243.644 75.1676V80H242.47ZM251.776 80V69.8182H252.949V73.5767H253.049C253.135 73.4441 253.254 73.2751 253.407 73.0696C253.562 72.8608 253.784 72.6752 254.073 72.5128C254.364 72.3471 254.759 72.2642 255.256 72.2642C255.899 72.2642 256.466 72.425 256.956 72.7464C257.447 73.0679 257.83 73.5237 258.105 74.1136C258.38 74.7036 258.517 75.3996 258.517 76.2017C258.517 77.0104 258.38 77.7114 258.105 78.3047C257.83 78.8946 257.449 79.352 256.961 79.6768C256.474 79.9983 255.912 80.1591 255.276 80.1591C254.785 80.1591 254.393 80.0779 254.098 79.9155C253.803 79.7498 253.576 79.5625 253.417 79.3537C253.257 79.1416 253.135 78.9659 253.049 78.8267H252.909V80H251.776ZM252.929 76.1818C252.929 76.7585 253.014 77.2673 253.183 77.7081C253.352 78.1456 253.599 78.4886 253.924 78.7372C254.248 78.9825 254.646 79.1051 255.117 79.1051C255.607 79.1051 256.017 78.9759 256.345 78.7173C256.676 78.4555 256.925 78.1042 257.091 77.6634C257.26 77.2192 257.344 76.7254 257.344 76.1818C257.344 75.6449 257.261 75.161 257.096 74.7301C256.933 74.2959 256.686 73.9529 256.355 73.701C256.027 73.4458 255.614 73.3182 255.117 73.3182C254.64 73.3182 254.239 73.4392 253.914 73.6811C253.589 73.9197 253.344 74.2545 253.178 74.6854C253.012 75.1129 252.929 75.6117 252.929 76.1818ZM265.125 76.8778V72.3636H266.298V80H265.125V78.7074H265.045C264.866 79.0952 264.588 79.425 264.21 79.6967C263.832 79.9652 263.355 80.0994 262.778 80.0994C262.301 80.0994 261.877 79.995 261.505 79.7862C261.134 79.5741 260.842 79.2559 260.63 78.8317C260.418 78.4041 260.312 77.8655 260.312 77.2159V72.3636H261.485V77.1364C261.485 77.6932 261.641 78.1373 261.953 78.4688C262.268 78.8002 262.669 78.9659 263.156 78.9659C263.448 78.9659 263.744 78.8913 264.046 78.7422C264.351 78.593 264.606 78.3643 264.811 78.0561C265.02 77.7479 265.125 77.3551 265.125 76.8778ZM268.447 80V72.3636H269.62V80H268.447ZM269.044 71.0909C268.815 71.0909 268.618 71.013 268.452 70.8572C268.289 70.7015 268.208 70.5142 268.208 70.2955C268.208 70.0767 268.289 69.8894 268.452 69.7337C268.618 69.5779 268.815 69.5 269.044 69.5C269.272 69.5 269.468 69.5779 269.63 69.7337C269.796 69.8894 269.879 70.0767 269.879 70.2955C269.879 70.5142 269.796 70.7015 269.63 70.8572C269.468 71.013 269.272 71.0909 269.044 71.0909ZM272.942 69.8182V80H271.769V69.8182H272.942ZM277.975 80.1591C277.339 80.1591 276.777 79.9983 276.29 79.6768C275.802 79.352 275.421 78.8946 275.146 78.3047C274.871 77.7114 274.733 77.0104 274.733 76.2017C274.733 75.3996 274.871 74.7036 275.146 74.1136C275.421 73.5237 275.804 73.0679 276.295 72.7464C276.785 72.425 277.352 72.2642 277.995 72.2642C278.492 72.2642 278.885 72.3471 279.173 72.5128C279.465 72.6752 279.687 72.8608 279.839 73.0696C279.995 73.2751 280.116 73.4441 280.202 73.5767H280.302V69.8182H281.475V80H280.341V78.8267H280.202C280.116 78.9659 279.993 79.1416 279.834 79.3537C279.675 79.5625 279.448 79.7498 279.153 79.9155C278.858 80.0779 278.465 80.1591 277.975 80.1591ZM278.134 79.1051C278.605 79.1051 279.002 78.9825 279.327 78.7372C279.652 78.4886 279.899 78.1456 280.068 77.7081C280.237 77.2673 280.322 76.7585 280.322 76.1818C280.322 75.6117 280.239 75.1129 280.073 74.6854C279.907 74.2545 279.662 73.9197 279.337 73.6811C279.012 73.4392 278.611 73.3182 278.134 73.3182C277.637 73.3182 277.223 73.4458 276.891 73.701C276.563 73.9529 276.316 74.2959 276.15 74.7301C275.988 75.161 275.907 75.6449 275.907 76.1818C275.907 76.7254 275.99 77.2192 276.155 77.6634C276.324 78.1042 276.573 78.4555 276.901 78.7173C277.233 78.9759 277.644 79.1051 278.134 79.1051ZM283.787 80V72.3636H284.96V80H283.787ZM284.383 71.0909C284.155 71.0909 283.957 71.013 283.792 70.8572C283.629 70.7015 283.548 70.5142 283.548 70.2955C283.548 70.0767 283.629 69.8894 283.792 69.7337C283.957 69.5779 284.155 69.5 284.383 69.5C284.612 69.5 284.808 69.5779 284.97 69.7337C285.136 69.8894 285.219 70.0767 285.219 70.2955C285.219 70.5142 285.136 70.7015 284.97 70.8572C284.808 71.013 284.612 71.0909 284.383 71.0909ZM288.282 75.4062V80H287.109V72.3636H288.243V73.5568H288.342C288.521 73.169 288.793 72.8575 289.157 72.6222C289.522 72.3835 289.993 72.2642 290.569 72.2642C291.086 72.2642 291.539 72.3703 291.926 72.5824C292.314 72.7912 292.616 73.1094 292.831 73.5369C293.047 73.9612 293.154 74.4981 293.154 75.1477V80H291.981V75.2273C291.981 74.6274 291.825 74.16 291.514 73.8253C291.202 73.4872 290.775 73.3182 290.231 73.3182C289.857 73.3182 289.522 73.3994 289.227 73.5618C288.935 73.7242 288.705 73.9612 288.536 74.2727C288.367 74.5843 288.282 74.9621 288.282 75.4062ZM298.381 83.0227C297.814 83.0227 297.327 82.9498 296.919 82.804C296.512 82.6615 296.172 82.4725 295.9 82.2372C295.632 82.0052 295.418 81.7566 295.259 81.4915L296.193 80.8352C296.299 80.9744 296.434 81.1335 296.596 81.3125C296.758 81.4948 296.981 81.6522 297.262 81.7848C297.547 81.9207 297.92 81.9886 298.381 81.9886C298.997 81.9886 299.506 81.8395 299.907 81.5412C300.308 81.2429 300.509 80.7756 300.509 80.1392V78.5881H300.409C300.323 78.7273 300.2 78.8996 300.041 79.1051C299.886 79.3073 299.66 79.4879 299.365 79.647C299.074 79.8028 298.679 79.8807 298.182 79.8807C297.566 79.8807 297.012 79.7348 296.521 79.4432C296.034 79.1515 295.648 78.7273 295.363 78.1705C295.081 77.6136 294.941 76.9375 294.941 76.142C294.941 75.3598 295.078 74.6787 295.353 74.0987C295.628 73.5154 296.011 73.0646 296.502 72.7464C296.992 72.425 297.559 72.2642 298.202 72.2642C298.699 72.2642 299.093 72.3471 299.385 72.5128C299.68 72.6752 299.905 72.8608 300.061 73.0696C300.22 73.2751 300.343 73.4441 300.429 73.5767H300.548V72.3636H301.682V80.2188C301.682 80.875 301.533 81.4086 301.235 81.8196C300.94 82.2339 300.542 82.5372 300.041 82.7294C299.544 82.925 298.991 83.0227 298.381 83.0227ZM298.341 78.8267C298.812 78.8267 299.209 78.719 299.534 78.5036C299.859 78.2881 300.106 77.9782 300.275 77.5739C300.444 77.1695 300.529 76.6856 300.529 76.1222C300.529 75.572 300.446 75.0864 300.28 74.6655C300.114 74.2446 299.869 73.9148 299.544 73.6761C299.219 73.4375 298.818 73.3182 298.341 73.3182C297.844 73.3182 297.43 73.4441 297.098 73.696C296.77 73.9479 296.523 74.286 296.357 74.7102C296.195 75.1345 296.114 75.6051 296.114 76.1222C296.114 76.6525 296.197 77.1214 296.362 77.5291C296.531 77.9335 296.78 78.2517 297.108 78.4837C297.44 78.7124 297.851 78.8267 298.341 78.8267ZM305.58 78.608L305.5 79.1449C305.444 79.5227 305.358 79.9271 305.242 80.358C305.129 80.7888 305.011 81.1948 304.889 81.576C304.766 81.9571 304.665 82.2604 304.585 82.4858H303.691C303.734 82.2737 303.79 81.9936 303.86 81.6456C303.929 81.2976 303.999 80.9081 304.068 80.4773C304.141 80.0497 304.201 79.6122 304.247 79.1648L304.307 78.608H305.58ZM315.251 69.8182V80H314.018V71.1108H313.958L311.472 72.7614V71.5085L314.018 69.8182H315.251ZM321.56 80.1392C321.142 80.1326 320.724 80.053 320.307 79.9006C319.889 79.7481 319.508 79.4912 319.163 79.13C318.819 78.7654 318.542 78.2732 318.333 77.6534C318.124 77.0303 318.02 76.2481 318.02 75.3068C318.02 74.4053 318.104 73.6065 318.273 72.9105C318.442 72.2112 318.688 71.6229 319.009 71.1456C319.331 70.665 319.719 70.3004 320.173 70.0518C320.63 69.8033 321.145 69.679 321.719 69.679C322.289 69.679 322.796 69.7933 323.24 70.022C323.688 70.2474 324.052 70.5623 324.334 70.9666C324.616 71.371 324.798 71.8366 324.881 72.3636H323.668C323.555 71.9062 323.336 71.5268 323.011 71.2251C322.687 70.9235 322.256 70.7727 321.719 70.7727C320.93 70.7727 320.308 71.1158 319.854 71.8018C319.404 72.4879 319.177 73.4508 319.173 74.6903H319.253C319.438 74.4086 319.659 74.1683 319.914 73.9695C320.173 73.7673 320.458 73.6115 320.769 73.5021C321.081 73.3928 321.411 73.3381 321.759 73.3381C322.342 73.3381 322.875 73.4839 323.359 73.7756C323.843 74.0639 324.231 74.4633 324.523 74.9737C324.814 75.4808 324.96 76.0625 324.96 76.7188C324.96 77.3485 324.819 77.9252 324.538 78.4489C324.256 78.9692 323.86 79.3835 323.349 79.6918C322.842 79.9967 322.246 80.1458 321.56 80.1392ZM321.56 79.0455C321.977 79.0455 322.352 78.9411 322.683 78.7322C323.018 78.5234 323.281 78.2434 323.474 77.892C323.669 77.5407 323.767 77.1496 323.767 76.7188C323.767 76.2978 323.673 75.915 323.484 75.5703C323.298 75.2223 323.041 74.9455 322.713 74.7401C322.388 74.5346 322.017 74.4318 321.599 74.4318C321.285 74.4318 320.991 74.4948 320.719 74.6207C320.448 74.7434 320.209 74.9124 320.004 75.1278C319.801 75.3433 319.642 75.5902 319.526 75.8686C319.41 76.1437 319.352 76.4337 319.352 76.7386C319.352 77.143 319.447 77.5208 319.636 77.8722C319.828 78.2235 320.09 78.5069 320.421 78.7223C320.756 78.9377 321.135 79.0455 321.56 79.0455ZM330.256 72.3636V73.358H326.299V72.3636H330.256ZM327.452 70.5341H328.626V77.8125C328.626 78.1439 328.674 78.3925 328.77 78.5582C328.869 78.7206 328.995 78.83 329.148 78.8864C329.303 78.9394 329.467 78.9659 329.64 78.9659C329.769 78.9659 329.875 78.9593 329.958 78.946C330.041 78.9295 330.107 78.9162 330.157 78.9062L330.395 79.9602C330.316 79.9901 330.205 80.0199 330.062 80.0497C329.92 80.0829 329.739 80.0994 329.52 80.0994C329.189 80.0994 328.864 80.0282 328.546 79.8857C328.231 79.7431 327.969 79.526 327.76 79.2344C327.555 78.9427 327.452 78.5748 327.452 78.1307V70.5341ZM333.358 75.4062V80H332.185V69.8182H333.358V73.5568H333.458C333.637 73.1624 333.905 72.8492 334.263 72.6172C334.625 72.3819 335.105 72.2642 335.705 72.2642C336.225 72.2642 336.681 72.3686 337.072 72.5774C337.463 72.7829 337.767 73.0994 337.982 73.527C338.201 73.9512 338.31 74.4915 338.31 75.1477V80H337.137V75.2273C337.137 74.6207 336.979 74.1518 336.665 73.8203C336.353 73.4856 335.921 73.3182 335.367 73.3182C334.983 73.3182 334.638 73.3994 334.333 73.5618C334.031 73.7242 333.793 73.9612 333.617 74.2727C333.445 74.5843 333.358 74.9621 333.358 75.4062ZM161.733 90.8182H163.205L166.665 99.2699H166.784L170.244 90.8182H171.716V101H170.562V93.2642H170.463L167.281 101H166.168L162.986 93.2642H162.886V101H161.733V90.8182ZM176.276 101.179C175.792 101.179 175.353 101.088 174.959 100.906C174.564 100.72 174.251 100.453 174.019 100.105C173.787 99.7538 173.671 99.3295 173.671 98.8324C173.671 98.3949 173.757 98.0402 173.93 97.7685C174.102 97.4934 174.332 97.2779 174.621 97.1222C174.909 96.9664 175.227 96.8504 175.575 96.7741C175.926 96.6946 176.279 96.6316 176.634 96.5852C177.098 96.5256 177.474 96.4808 177.763 96.451C178.054 96.4179 178.266 96.3632 178.399 96.2869C178.535 96.2107 178.603 96.0781 178.603 95.8892V95.8494C178.603 95.3589 178.469 94.9777 178.2 94.706C177.935 94.4342 177.532 94.2983 176.992 94.2983C176.432 94.2983 175.993 94.4209 175.675 94.6662C175.356 94.9115 175.133 95.1733 175.003 95.4517L173.89 95.054C174.089 94.59 174.354 94.2287 174.685 93.9702C175.02 93.7083 175.385 93.526 175.779 93.4233C176.177 93.3172 176.568 93.2642 176.952 93.2642C177.198 93.2642 177.479 93.294 177.797 93.3537C178.119 93.41 178.429 93.5277 178.727 93.7067C179.029 93.8857 179.279 94.1558 179.478 94.517C179.677 94.8783 179.776 95.3622 179.776 95.9688V101H178.603V99.9659H178.543C178.464 100.132 178.331 100.309 178.145 100.498C177.96 100.687 177.713 100.848 177.405 100.98C177.096 101.113 176.72 101.179 176.276 101.179ZM176.455 100.125C176.919 100.125 177.31 100.034 177.628 99.8516C177.95 99.6693 178.192 99.4339 178.354 99.1456C178.52 98.8572 178.603 98.554 178.603 98.2358V97.1619C178.553 97.2216 178.444 97.2763 178.275 97.326C178.109 97.3724 177.917 97.4138 177.698 97.4503C177.483 97.4834 177.272 97.5133 177.067 97.5398C176.864 97.563 176.7 97.5829 176.574 97.5994C176.269 97.6392 175.984 97.7038 175.719 97.7933C175.457 97.8795 175.245 98.0104 175.083 98.1861C174.924 98.3584 174.844 98.5937 174.844 98.892C174.844 99.2997 174.995 99.608 175.297 99.8168C175.602 100.022 175.988 100.125 176.455 100.125ZM181.918 101V93.3636H183.091V101H181.918ZM182.514 92.0909C182.286 92.0909 182.088 92.013 181.923 91.8572C181.76 91.7015 181.679 91.5142 181.679 91.2955C181.679 91.0767 181.76 90.8894 181.923 90.7337C182.088 90.5779 182.286 90.5 182.514 90.5C182.743 90.5 182.938 90.5779 183.101 90.7337C183.267 90.8894 183.349 91.0767 183.349 91.2955C183.349 91.5142 183.267 91.7015 183.101 91.8572C182.938 92.013 182.743 92.0909 182.514 92.0909ZM186.413 96.4062V101H185.24V93.3636H186.373V94.5568H186.473C186.652 94.169 186.924 93.8575 187.288 93.6222C187.653 93.3835 188.123 93.2642 188.7 93.2642C189.217 93.2642 189.67 93.3703 190.057 93.5824C190.445 93.7912 190.747 94.1094 190.962 94.5369C191.178 94.9612 191.285 95.4981 191.285 96.1477V101H190.112V96.2273C190.112 95.6274 189.956 95.16 189.645 94.8253C189.333 94.4872 188.906 94.3182 188.362 94.3182C187.988 94.3182 187.653 94.3994 187.358 94.5618C187.066 94.7242 186.836 94.9612 186.667 95.2727C186.498 95.5843 186.413 95.9621 186.413 96.4062ZM197.526 101V90.8182H200.966C201.762 90.8182 202.415 90.9541 202.925 91.2259C203.435 91.4943 203.813 91.8639 204.059 92.3345C204.304 92.8052 204.426 93.3404 204.426 93.9403C204.426 94.5402 204.304 95.0722 204.059 95.5362C203.813 96.0002 203.437 96.3648 202.93 96.63C202.423 96.8918 201.775 97.0227 200.986 97.0227H198.202V95.9091H200.946C201.49 95.9091 201.927 95.8295 202.259 95.6705C202.594 95.5114 202.836 95.286 202.985 94.9943C203.137 94.6993 203.213 94.348 203.213 93.9403C203.213 93.5327 203.137 93.1764 202.985 92.8714C202.832 92.5665 202.589 92.3312 202.254 92.1655C201.919 91.9964 201.477 91.9119 200.926 91.9119H198.759V101H197.526ZM202.319 96.4261L204.824 101H203.392L200.926 96.4261H202.319ZM209.123 101.159C208.487 101.159 207.925 100.998 207.438 100.677C206.951 100.352 206.57 99.8946 206.295 99.3047C206.019 98.7114 205.882 98.0104 205.882 97.2017C205.882 96.3996 206.019 95.7036 206.295 95.1136C206.57 94.5237 206.952 94.0679 207.443 93.7464C207.934 93.425 208.5 93.2642 209.143 93.2642C209.64 93.2642 210.033 93.3471 210.322 93.5128C210.613 93.6752 210.835 93.8608 210.988 94.0696C211.144 94.2751 211.265 94.4441 211.351 94.5767H211.45V90.8182H212.623V101H211.49V99.8267H211.351C211.265 99.9659 211.142 100.142 210.983 100.354C210.824 100.562 210.597 100.75 210.302 100.915C210.007 101.078 209.614 101.159 209.123 101.159ZM209.282 100.105C209.753 100.105 210.151 99.9825 210.476 99.7372C210.8 99.4886 211.047 99.1456 211.216 98.7081C211.385 98.2673 211.47 97.7585 211.47 97.1818C211.47 96.6117 211.387 96.1129 211.221 95.6854C211.056 95.2545 210.81 94.9197 210.486 94.6811C210.161 94.4392 209.76 94.3182 209.282 94.3182C208.785 94.3182 208.371 94.4458 208.04 94.701C207.711 94.9529 207.465 95.2959 207.299 95.7301C207.136 96.161 207.055 96.6449 207.055 97.1818C207.055 97.7254 207.138 98.2192 207.304 98.6634C207.473 99.1042 207.721 99.4555 208.05 99.7173C208.381 99.9759 208.792 100.105 209.282 100.105ZM216.685 99.608L216.606 100.145C216.549 100.523 216.463 100.927 216.347 101.358C216.234 101.789 216.117 102.195 215.994 102.576C215.872 102.957 215.77 103.26 215.691 103.486H214.796C214.839 103.274 214.895 102.994 214.965 102.646C215.035 102.298 215.104 101.908 215.174 101.477C215.247 101.05 215.306 100.612 215.353 100.165L215.412 99.608H216.685ZM226.217 101.139C225.561 101.139 224.976 101.027 224.462 100.801C223.952 100.576 223.546 100.263 223.244 99.8615C222.946 99.4571 222.783 98.9882 222.757 98.4545H224.01C224.036 98.7827 224.149 99.0661 224.348 99.3047C224.547 99.54 224.807 99.7223 225.128 99.8516C225.45 99.9808 225.806 100.045 226.197 100.045C226.635 100.045 227.022 99.9692 227.36 99.8168C227.699 99.6643 227.964 99.4522 228.156 99.1804C228.348 98.9086 228.444 98.5938 228.444 98.2358C228.444 97.8613 228.351 97.5315 228.166 97.2464C227.98 96.9581 227.708 96.7327 227.35 96.5703C226.993 96.4079 226.555 96.3267 226.038 96.3267H225.223V95.233H226.038C226.442 95.233 226.797 95.16 227.102 95.0142C227.41 94.8684 227.65 94.6629 227.823 94.3977C227.998 94.1326 228.086 93.821 228.086 93.4631C228.086 93.1184 228.01 92.8184 227.858 92.5632C227.705 92.308 227.49 92.1091 227.211 91.9666C226.936 91.8241 226.611 91.7528 226.237 91.7528C225.886 91.7528 225.554 91.8175 225.243 91.9467C224.934 92.0727 224.682 92.2566 224.487 92.4986C224.291 92.7372 224.185 93.0256 224.169 93.3636H222.975C222.995 92.83 223.156 92.3627 223.458 91.9616C223.759 91.5573 224.154 91.2424 224.641 91.017C225.132 90.7917 225.67 90.679 226.257 90.679C226.886 90.679 227.427 90.8066 227.877 91.0618C228.328 91.3137 228.675 91.6468 228.917 92.0611C229.158 92.4754 229.279 92.9228 229.279 93.4034C229.279 93.9768 229.129 94.4657 228.827 94.87C228.529 95.2744 228.123 95.5545 227.609 95.7102V95.7898C228.252 95.8958 228.754 96.1693 229.115 96.6101C229.477 97.0476 229.657 97.5895 229.657 98.2358C229.657 98.7893 229.507 99.2865 229.205 99.7273C228.907 100.165 228.499 100.509 227.982 100.761C227.465 101.013 226.877 101.139 226.217 101.139ZM231.711 101V93.3636H232.844V94.517H232.924C233.063 94.1392 233.315 93.8326 233.679 93.5973C234.044 93.362 234.455 93.2443 234.912 93.2443C234.998 93.2443 235.106 93.246 235.235 93.2493C235.365 93.2526 235.462 93.2576 235.529 93.2642V94.4574C235.489 94.4474 235.398 94.4325 235.255 94.4126C235.116 94.3894 234.969 94.3778 234.813 94.3778C234.442 94.3778 234.11 94.4557 233.819 94.6115C233.53 94.764 233.301 94.9761 233.132 95.2479C232.967 95.5163 232.884 95.8229 232.884 96.1676V101H231.711ZM239.571 101.159C238.934 101.159 238.373 100.998 237.885 100.677C237.398 100.352 237.017 99.8946 236.742 99.3047C236.467 98.7114 236.329 98.0104 236.329 97.2017C236.329 96.3996 236.467 95.7036 236.742 95.1136C237.017 94.5237 237.4 94.0679 237.89 93.7464C238.381 93.425 238.948 93.2642 239.591 93.2642C240.088 93.2642 240.48 93.3471 240.769 93.5128C241.06 93.6752 241.283 93.8608 241.435 94.0696C241.591 94.2751 241.712 94.4441 241.798 94.5767H241.897V90.8182H243.071V101H241.937V99.8267H241.798C241.712 99.9659 241.589 100.142 241.43 100.354C241.271 100.562 241.044 100.75 240.749 100.915C240.454 101.078 240.061 101.159 239.571 101.159ZM239.73 100.105C240.2 100.105 240.598 99.9825 240.923 99.7372C241.248 99.4886 241.495 99.1456 241.664 98.7081C241.833 98.2673 241.917 97.7585 241.917 97.1818C241.917 96.6117 241.834 96.1129 241.669 95.6854C241.503 95.2545 241.258 94.9197 240.933 94.6811C240.608 94.4392 240.207 94.3182 239.73 94.3182C239.233 94.3182 238.818 94.4458 238.487 94.701C238.159 94.9529 237.912 95.2959 237.746 95.7301C237.584 96.161 237.502 96.6449 237.502 97.1818C237.502 97.7254 237.585 98.2192 237.751 98.6634C237.92 99.1042 238.169 99.4555 238.497 99.7173C238.828 99.9759 239.239 100.105 239.73 100.105ZM249.479 101V90.8182H253.039C253.748 90.8182 254.333 90.9408 254.794 91.1861C255.254 91.428 255.597 91.7545 255.823 92.1655C256.048 92.5732 256.161 93.0256 256.161 93.5227C256.161 93.9602 256.083 94.3215 255.927 94.6065C255.775 94.8916 255.573 95.117 255.321 95.2827C255.072 95.4484 254.802 95.571 254.51 95.6506V95.75C254.822 95.7699 255.135 95.8793 255.45 96.0781C255.765 96.277 256.028 96.562 256.24 96.9332C256.453 97.3045 256.559 97.7585 256.559 98.2955C256.559 98.8059 256.443 99.2649 256.211 99.6726C255.979 100.08 255.612 100.403 255.112 100.642C254.611 100.881 253.96 101 253.158 101H249.479ZM250.712 99.9062H253.158C253.963 99.9062 254.535 99.7505 254.873 99.4389C255.215 99.1241 255.385 98.7429 255.385 98.2955C255.385 97.9508 255.297 97.6326 255.122 97.3409C254.946 97.0459 254.696 96.8106 254.371 96.6349C254.046 96.456 253.662 96.3665 253.218 96.3665H250.712V99.9062ZM250.712 95.2926H252.999C253.37 95.2926 253.705 95.2197 254.003 95.0739C254.305 94.928 254.543 94.7225 254.719 94.4574C254.898 94.1922 254.988 93.8807 254.988 93.5227C254.988 93.0753 254.832 92.6958 254.52 92.3842C254.209 92.0694 253.715 91.9119 253.039 91.9119H250.712V95.2926ZM259.599 90.8182V101H258.425V90.8182H259.599ZM264.85 101.159C264.161 101.159 263.556 100.995 263.035 100.667C262.518 100.339 262.114 99.8797 261.822 99.2898C261.534 98.6998 261.39 98.0104 261.39 97.2216C261.39 96.4261 261.534 95.7318 261.822 95.1385C262.114 94.5452 262.518 94.0845 263.035 93.7564C263.556 93.4283 264.161 93.2642 264.85 93.2642C265.539 93.2642 266.143 93.4283 266.66 93.7564C267.18 94.0845 267.584 94.5452 267.873 95.1385C268.164 95.7318 268.31 96.4261 268.31 97.2216C268.31 98.0104 268.164 98.6998 267.873 99.2898C267.584 99.8797 267.18 100.339 266.66 100.667C266.143 100.995 265.539 101.159 264.85 101.159ZM264.85 100.105C265.374 100.105 265.805 99.9709 266.143 99.7024C266.481 99.4339 266.731 99.081 266.893 98.6435C267.056 98.206 267.137 97.732 267.137 97.2216C267.137 96.7112 267.056 96.2356 266.893 95.7947C266.731 95.3539 266.481 94.9976 266.143 94.7259C265.805 94.4541 265.374 94.3182 264.85 94.3182C264.326 94.3182 263.895 94.4541 263.557 94.7259C263.219 94.9976 262.969 95.3539 262.807 95.7947C262.644 96.2356 262.563 96.7112 262.563 97.2216C262.563 97.732 262.644 98.206 262.807 98.6435C262.969 99.081 263.219 99.4339 263.557 99.7024C263.895 99.9709 264.326 100.105 264.85 100.105ZM273.203 101.159C272.488 101.159 271.871 100.99 271.354 100.652C270.837 100.314 270.439 99.8482 270.161 99.255C269.882 98.6617 269.743 97.9839 269.743 97.2216C269.743 96.446 269.886 95.7616 270.171 95.1683C270.459 94.5717 270.86 94.1061 271.374 93.7713C271.891 93.4332 272.494 93.2642 273.184 93.2642C273.721 93.2642 274.204 93.3636 274.635 93.5625C275.066 93.7614 275.419 94.0398 275.694 94.3977C275.969 94.7557 276.14 95.1733 276.206 95.6506H275.033C274.944 95.3026 274.745 94.9943 274.436 94.7259C274.132 94.4541 273.721 94.3182 273.203 94.3182C272.746 94.3182 272.345 94.4375 272 94.6761C271.659 94.9115 271.392 95.2446 271.2 95.6754C271.011 96.103 270.917 96.6051 270.917 97.1818C270.917 97.7718 271.009 98.2855 271.195 98.723C271.384 99.1605 271.649 99.5002 271.99 99.7422C272.335 99.9841 272.739 100.105 273.203 100.105C273.508 100.105 273.785 100.052 274.034 99.946C274.282 99.84 274.493 99.6875 274.665 99.4886C274.837 99.2898 274.96 99.0511 275.033 98.7727H276.206C276.14 99.2235 275.976 99.6295 275.714 99.9908C275.456 100.349 275.113 100.634 274.685 100.846C274.261 101.055 273.767 101.159 273.203 101.159ZM279.015 98.2159L278.995 96.7642H279.234L282.575 93.3636H284.027L280.467 96.9631H280.368L279.015 98.2159ZM277.922 101V90.8182H279.095V101H277.922ZM282.774 101L279.791 97.2216L280.626 96.4062L284.265 101H282.774ZM287.287 99.608L287.207 100.145C287.151 100.523 287.065 100.927 286.949 101.358C286.836 101.789 286.718 102.195 286.596 102.576C286.473 102.957 286.372 103.26 286.292 103.486H285.398C285.441 103.274 285.497 102.994 285.567 102.646C285.636 102.298 285.706 101.908 285.775 101.477C285.848 101.05 285.908 100.612 285.954 100.165L286.014 99.608H287.287ZM161.733 122V111.818H162.966V116.869H163.085L167.659 111.818H169.27L164.994 116.412L169.27 122H167.778L164.239 117.267L162.966 118.699V122H161.733ZM173.248 122.159C172.559 122.159 171.954 121.995 171.434 121.667C170.917 121.339 170.512 120.88 170.221 120.29C169.932 119.7 169.788 119.01 169.788 118.222C169.788 117.426 169.932 116.732 170.221 116.138C170.512 115.545 170.917 115.085 171.434 114.756C171.954 114.428 172.559 114.264 173.248 114.264C173.938 114.264 174.541 114.428 175.058 114.756C175.578 115.085 175.983 115.545 176.271 116.138C176.563 116.732 176.709 117.426 176.709 118.222C176.709 119.01 176.563 119.7 176.271 120.29C175.983 120.88 175.578 121.339 175.058 121.667C174.541 121.995 173.938 122.159 173.248 122.159ZM173.248 121.105C173.772 121.105 174.203 120.971 174.541 120.702C174.879 120.434 175.129 120.081 175.292 119.643C175.454 119.206 175.535 118.732 175.535 118.222C175.535 117.711 175.454 117.236 175.292 116.795C175.129 116.354 174.879 115.998 174.541 115.726C174.203 115.454 173.772 115.318 173.248 115.318C172.725 115.318 172.294 115.454 171.956 115.726C171.618 115.998 171.367 116.354 171.205 116.795C171.043 117.236 170.961 117.711 170.961 118.222C170.961 118.732 171.043 119.206 171.205 119.643C171.367 120.081 171.618 120.434 171.956 120.702C172.294 120.971 172.725 121.105 173.248 121.105ZM178.5 122V114.364H179.633V115.517H179.713C179.852 115.139 180.104 114.833 180.468 114.597C180.833 114.362 181.244 114.244 181.701 114.244C181.788 114.244 181.895 114.246 182.025 114.249C182.154 114.253 182.252 114.258 182.318 114.264V115.457C182.278 115.447 182.187 115.433 182.044 115.413C181.905 115.389 181.758 115.378 181.602 115.378C181.231 115.378 180.899 115.456 180.608 115.612C180.319 115.764 180.091 115.976 179.922 116.248C179.756 116.516 179.673 116.823 179.673 117.168V122H178.5ZM185.956 122.179C185.472 122.179 185.033 122.088 184.638 121.906C184.244 121.72 183.931 121.453 183.699 121.105C183.467 120.754 183.351 120.33 183.351 119.832C183.351 119.395 183.437 119.04 183.609 118.768C183.782 118.493 184.012 118.278 184.3 118.122C184.589 117.966 184.907 117.85 185.255 117.774C185.606 117.695 185.959 117.632 186.314 117.585C186.778 117.526 187.154 117.481 187.442 117.451C187.734 117.418 187.946 117.363 188.079 117.287C188.215 117.211 188.282 117.078 188.282 116.889V116.849C188.282 116.359 188.148 115.978 187.88 115.706C187.615 115.434 187.212 115.298 186.672 115.298C186.112 115.298 185.672 115.421 185.354 115.666C185.036 115.911 184.812 116.173 184.683 116.452L183.569 116.054C183.768 115.59 184.033 115.229 184.365 114.97C184.7 114.708 185.064 114.526 185.459 114.423C185.856 114.317 186.247 114.264 186.632 114.264C186.877 114.264 187.159 114.294 187.477 114.354C187.799 114.41 188.108 114.528 188.407 114.707C188.708 114.886 188.959 115.156 189.157 115.517C189.356 115.878 189.456 116.362 189.456 116.969V122H188.282V120.966H188.223C188.143 121.132 188.011 121.309 187.825 121.498C187.64 121.687 187.393 121.848 187.084 121.98C186.776 122.113 186.4 122.179 185.956 122.179ZM186.135 121.125C186.599 121.125 186.99 121.034 187.308 120.852C187.63 120.669 187.872 120.434 188.034 120.146C188.2 119.857 188.282 119.554 188.282 119.236V118.162C188.233 118.222 188.123 118.276 187.954 118.326C187.789 118.372 187.596 118.414 187.378 118.45C187.162 118.483 186.952 118.513 186.746 118.54C186.544 118.563 186.38 118.583 186.254 118.599C185.949 118.639 185.664 118.704 185.399 118.793C185.137 118.879 184.925 119.01 184.763 119.186C184.604 119.358 184.524 119.594 184.524 119.892C184.524 120.3 184.675 120.608 184.976 120.817C185.281 121.022 185.667 121.125 186.135 121.125ZM191.597 122V114.364H192.731V115.557H192.83C192.989 115.149 193.246 114.833 193.601 114.607C193.955 114.379 194.381 114.264 194.879 114.264C195.382 114.264 195.802 114.379 196.136 114.607C196.474 114.833 196.738 115.149 196.927 115.557H197.006C197.202 115.162 197.495 114.849 197.886 114.617C198.277 114.382 198.746 114.264 199.293 114.264C199.976 114.264 200.535 114.478 200.969 114.906C201.403 115.33 201.62 115.991 201.62 116.889V122H200.447V116.889C200.447 116.326 200.293 115.923 199.984 115.681C199.676 115.439 199.313 115.318 198.896 115.318C198.359 115.318 197.943 115.481 197.648 115.805C197.353 116.127 197.205 116.535 197.205 117.028V122H196.012V116.77C196.012 116.336 195.871 115.986 195.589 115.721C195.308 115.452 194.945 115.318 194.501 115.318C194.196 115.318 193.911 115.399 193.646 115.562C193.384 115.724 193.172 115.95 193.009 116.238C192.85 116.523 192.771 116.853 192.771 117.227V122H191.597ZM206.012 122.179C205.529 122.179 205.089 122.088 204.695 121.906C204.301 121.72 203.987 121.453 203.755 121.105C203.523 120.754 203.407 120.33 203.407 119.832C203.407 119.395 203.493 119.04 203.666 118.768C203.838 118.493 204.069 118.278 204.357 118.122C204.645 117.966 204.963 117.85 205.311 117.774C205.663 117.695 206.016 117.632 206.37 117.585C206.834 117.526 207.211 117.481 207.499 117.451C207.791 117.418 208.003 117.363 208.135 117.287C208.271 117.211 208.339 117.078 208.339 116.889V116.849C208.339 116.359 208.205 115.978 207.936 115.706C207.671 115.434 207.269 115.298 206.728 115.298C206.168 115.298 205.729 115.421 205.411 115.666C205.093 115.911 204.869 116.173 204.74 116.452L203.626 116.054C203.825 115.59 204.09 115.229 204.422 114.97C204.756 114.708 205.121 114.526 205.515 114.423C205.913 114.317 206.304 114.264 206.689 114.264C206.934 114.264 207.216 114.294 207.534 114.354C207.855 114.41 208.165 114.528 208.463 114.707C208.765 114.886 209.015 115.156 209.214 115.517C209.413 115.878 209.512 116.362 209.512 116.969V122H208.339V120.966H208.279C208.2 121.132 208.067 121.309 207.882 121.498C207.696 121.687 207.449 121.848 207.141 121.98C206.833 122.113 206.457 122.179 206.012 122.179ZM206.191 121.125C206.655 121.125 207.047 121.034 207.365 120.852C207.686 120.669 207.928 120.434 208.091 120.146C208.256 119.857 208.339 119.554 208.339 119.236V118.162C208.289 118.222 208.18 118.276 208.011 118.326C207.845 118.372 207.653 118.414 207.434 118.45C207.219 118.483 207.008 118.513 206.803 118.54C206.601 118.563 206.437 118.583 206.311 118.599C206.006 118.639 205.721 118.704 205.456 118.793C205.194 118.879 204.982 119.01 204.819 119.186C204.66 119.358 204.581 119.594 204.581 119.892C204.581 120.3 204.731 120.608 205.033 120.817C205.338 121.022 205.724 121.125 206.191 121.125ZM212.827 117.406V122H211.654V114.364H212.787V115.557H212.887C213.066 115.169 213.338 114.857 213.702 114.622C214.067 114.384 214.537 114.264 215.114 114.264C215.631 114.264 216.084 114.37 216.471 114.582C216.859 114.791 217.161 115.109 217.376 115.537C217.592 115.961 217.699 116.498 217.699 117.148V122H216.526V117.227C216.526 116.627 216.37 116.16 216.059 115.825C215.747 115.487 215.32 115.318 214.776 115.318C214.402 115.318 214.067 115.399 213.772 115.562C213.48 115.724 213.25 115.961 213.081 116.273C212.912 116.584 212.827 116.962 212.827 117.406ZM222.926 125.023C222.359 125.023 221.872 124.95 221.464 124.804C221.056 124.661 220.717 124.473 220.445 124.237C220.176 124.005 219.963 123.757 219.804 123.491L220.738 122.835C220.844 122.974 220.979 123.134 221.141 123.312C221.303 123.495 221.525 123.652 221.807 123.785C222.092 123.921 222.465 123.989 222.926 123.989C223.542 123.989 224.051 123.839 224.452 123.541C224.853 123.243 225.054 122.776 225.054 122.139V120.588H224.954C224.868 120.727 224.745 120.9 224.586 121.105C224.431 121.307 224.205 121.488 223.91 121.647C223.618 121.803 223.224 121.881 222.727 121.881C222.11 121.881 221.557 121.735 221.066 121.443C220.579 121.152 220.193 120.727 219.908 120.17C219.626 119.614 219.485 118.937 219.485 118.142C219.485 117.36 219.623 116.679 219.898 116.099C220.173 115.515 220.556 115.065 221.047 114.746C221.537 114.425 222.104 114.264 222.747 114.264C223.244 114.264 223.638 114.347 223.93 114.513C224.225 114.675 224.45 114.861 224.606 115.07C224.765 115.275 224.888 115.444 224.974 115.577H225.093V114.364H226.227V122.219C226.227 122.875 226.078 123.409 225.779 123.82C225.484 124.234 225.087 124.537 224.586 124.729C224.089 124.925 223.536 125.023 222.926 125.023ZM222.886 120.827C223.357 120.827 223.754 120.719 224.079 120.504C224.404 120.288 224.651 119.978 224.82 119.574C224.989 119.17 225.074 118.686 225.074 118.122C225.074 117.572 224.991 117.086 224.825 116.665C224.659 116.245 224.414 115.915 224.089 115.676C223.764 115.437 223.363 115.318 222.886 115.318C222.389 115.318 221.975 115.444 221.643 115.696C221.315 115.948 221.068 116.286 220.902 116.71C220.74 117.134 220.659 117.605 220.659 118.122C220.659 118.652 220.742 119.121 220.907 119.529C221.076 119.933 221.325 120.252 221.653 120.484C221.984 120.712 222.395 120.827 222.886 120.827ZM230.622 122.179C230.138 122.179 229.699 122.088 229.304 121.906C228.91 121.72 228.597 121.453 228.365 121.105C228.133 120.754 228.017 120.33 228.017 119.832C228.017 119.395 228.103 119.04 228.275 118.768C228.448 118.493 228.678 118.278 228.966 118.122C229.255 117.966 229.573 117.85 229.921 117.774C230.272 117.695 230.625 117.632 230.98 117.585C231.444 117.526 231.82 117.481 232.108 117.451C232.4 117.418 232.612 117.363 232.745 117.287C232.881 117.211 232.949 117.078 232.949 116.889V116.849C232.949 116.359 232.814 115.978 232.546 115.706C232.281 115.434 231.878 115.298 231.338 115.298C230.778 115.298 230.338 115.421 230.02 115.666C229.702 115.911 229.478 116.173 229.349 116.452L228.235 116.054C228.434 115.59 228.699 115.229 229.031 114.97C229.366 114.708 229.73 114.526 230.125 114.423C230.522 114.317 230.913 114.264 231.298 114.264C231.543 114.264 231.825 114.294 232.143 114.354C232.465 114.41 232.775 114.528 233.073 114.707C233.374 114.886 233.625 115.156 233.824 115.517C234.022 115.878 234.122 116.362 234.122 116.969V122H232.949V120.966H232.889C232.809 121.132 232.677 121.309 232.491 121.498C232.306 121.687 232.059 121.848 231.75 121.98C231.442 122.113 231.066 122.179 230.622 122.179ZM230.801 121.125C231.265 121.125 231.656 121.034 231.974 120.852C232.296 120.669 232.538 120.434 232.7 120.146C232.866 119.857 232.949 119.554 232.949 119.236V118.162C232.899 118.222 232.789 118.276 232.62 118.326C232.455 118.372 232.262 118.414 232.044 118.45C231.828 118.483 231.618 118.513 231.412 118.54C231.21 118.563 231.046 118.583 230.92 118.599C230.615 118.639 230.33 118.704 230.065 118.793C229.803 118.879 229.591 119.01 229.429 119.186C229.27 119.358 229.19 119.594 229.19 119.892C229.19 120.3 229.341 120.608 229.642 120.817C229.947 121.022 230.333 121.125 230.801 121.125ZM237.437 111.818V122H236.263V111.818H237.437ZM241.833 122.179C241.349 122.179 240.91 122.088 240.515 121.906C240.121 121.72 239.808 121.453 239.576 121.105C239.344 120.754 239.228 120.33 239.228 119.832C239.228 119.395 239.314 119.04 239.486 118.768C239.658 118.493 239.889 118.278 240.177 118.122C240.466 117.966 240.784 117.85 241.132 117.774C241.483 117.695 241.836 117.632 242.191 117.585C242.655 117.526 243.031 117.481 243.319 117.451C243.611 117.418 243.823 117.363 243.956 117.287C244.092 117.211 244.159 117.078 244.159 116.889V116.849C244.159 116.359 244.025 115.978 243.757 115.706C243.492 115.434 243.089 115.298 242.549 115.298C241.989 115.298 241.549 115.421 241.231 115.666C240.913 115.911 240.689 116.173 240.56 116.452L239.446 116.054C239.645 115.59 239.91 115.229 240.242 114.97C240.577 114.708 240.941 114.526 241.336 114.423C241.733 114.317 242.124 114.264 242.509 114.264C242.754 114.264 243.036 114.294 243.354 114.354C243.676 114.41 243.985 114.528 244.284 114.707C244.585 114.886 244.836 115.156 245.034 115.517C245.233 115.878 245.333 116.362 245.333 116.969V122H244.159V120.966H244.1C244.02 121.132 243.888 121.309 243.702 121.498C243.516 121.687 243.27 121.848 242.961 121.98C242.653 122.113 242.277 122.179 241.833 122.179ZM242.012 121.125C242.476 121.125 242.867 121.034 243.185 120.852C243.507 120.669 243.748 120.434 243.911 120.146C244.077 119.857 244.159 119.554 244.159 119.236V118.162C244.11 118.222 244 118.276 243.831 118.326C243.666 118.372 243.473 118.414 243.255 118.45C243.039 118.483 242.829 118.513 242.623 118.54C242.421 118.563 242.257 118.583 242.131 118.599C241.826 118.639 241.541 118.704 241.276 118.793C241.014 118.879 240.802 119.01 240.64 119.186C240.48 119.358 240.401 119.594 240.401 119.892C240.401 120.3 240.552 120.608 240.853 120.817C241.158 121.022 241.544 121.125 242.012 121.125ZM249.224 120.608L249.145 121.145C249.088 121.523 249.002 121.927 248.886 122.358C248.773 122.789 248.656 123.195 248.533 123.576C248.411 123.957 248.309 124.26 248.23 124.486H247.335C247.378 124.274 247.434 123.994 247.504 123.646C247.574 123.298 247.643 122.908 247.713 122.477C247.786 122.05 247.845 121.612 247.892 121.165L247.952 120.608H249.224ZM255.495 122V111.818H259.054C259.764 111.818 260.349 111.941 260.809 112.186C261.27 112.428 261.613 112.754 261.838 113.165C262.064 113.573 262.176 114.026 262.176 114.523C262.176 114.96 262.099 115.321 261.943 115.607C261.79 115.892 261.588 116.117 261.336 116.283C261.088 116.448 260.818 116.571 260.526 116.651V116.75C260.837 116.77 261.151 116.879 261.466 117.078C261.78 117.277 262.044 117.562 262.256 117.933C262.468 118.304 262.574 118.759 262.574 119.295C262.574 119.806 262.458 120.265 262.226 120.673C261.994 121.08 261.628 121.403 261.127 121.642C260.627 121.881 259.976 122 259.174 122H255.495ZM256.728 120.906H259.174C259.979 120.906 260.551 120.75 260.889 120.439C261.23 120.124 261.401 119.743 261.401 119.295C261.401 118.951 261.313 118.633 261.137 118.341C260.962 118.046 260.712 117.811 260.387 117.635C260.062 117.456 259.677 117.366 259.233 117.366H256.728V120.906ZM256.728 116.293H259.015C259.386 116.293 259.721 116.22 260.019 116.074C260.32 115.928 260.559 115.723 260.735 115.457C260.914 115.192 261.003 114.881 261.003 114.523C261.003 114.075 260.847 113.696 260.536 113.384C260.224 113.069 259.73 112.912 259.054 112.912H256.728V116.293ZM266.688 122.179C266.204 122.179 265.765 122.088 265.371 121.906C264.976 121.72 264.663 121.453 264.431 121.105C264.199 120.754 264.083 120.33 264.083 119.832C264.083 119.395 264.169 119.04 264.342 118.768C264.514 118.493 264.744 118.278 265.033 118.122C265.321 117.966 265.639 117.85 265.987 117.774C266.339 117.695 266.692 117.632 267.046 117.585C267.51 117.526 267.886 117.481 268.175 117.451C268.466 117.418 268.679 117.363 268.811 117.287C268.947 117.211 269.015 117.078 269.015 116.889V116.849C269.015 116.359 268.881 115.978 268.612 115.706C268.347 115.434 267.944 115.298 267.404 115.298C266.844 115.298 266.405 115.421 266.087 115.666C265.768 115.911 265.545 116.173 265.415 116.452L264.302 116.054C264.501 115.59 264.766 115.229 265.097 114.97C265.432 114.708 265.797 114.526 266.191 114.423C266.589 114.317 266.98 114.264 267.364 114.264C267.61 114.264 267.891 114.294 268.21 114.354C268.531 114.41 268.841 114.528 269.139 114.707C269.441 114.886 269.691 115.156 269.89 115.517C270.089 115.878 270.188 116.362 270.188 116.969V122H269.015V120.966H268.955C268.876 121.132 268.743 121.309 268.558 121.498C268.372 121.687 268.125 121.848 267.817 121.98C267.509 122.113 267.132 122.179 266.688 122.179ZM266.867 121.125C267.331 121.125 267.722 121.034 268.04 120.852C268.362 120.669 268.604 120.434 268.766 120.146C268.932 119.857 269.015 119.554 269.015 119.236V118.162C268.965 118.222 268.856 118.276 268.687 118.326C268.521 118.372 268.329 118.414 268.11 118.45C267.895 118.483 267.684 118.513 267.479 118.54C267.277 118.563 267.112 118.583 266.987 118.599C266.682 118.639 266.397 118.704 266.131 118.793C265.87 118.879 265.657 119.01 265.495 119.186C265.336 119.358 265.256 119.594 265.256 119.892C265.256 120.3 265.407 120.608 265.709 120.817C266.014 121.022 266.4 121.125 266.867 121.125ZM273.503 117.406V122H272.33V114.364H273.463V115.557H273.563C273.742 115.169 274.013 114.857 274.378 114.622C274.743 114.384 275.213 114.264 275.79 114.264C276.307 114.264 276.759 114.37 277.147 114.582C277.535 114.791 277.837 115.109 278.052 115.537C278.267 115.961 278.375 116.498 278.375 117.148V122H277.202V117.227C277.202 116.627 277.046 116.16 276.735 115.825C276.423 115.487 275.995 115.318 275.452 115.318C275.077 115.318 274.743 115.399 274.448 115.562C274.156 115.724 273.926 115.961 273.757 116.273C273.588 116.584 273.503 116.962 273.503 117.406ZM283.602 125.023C283.035 125.023 282.548 124.95 282.14 124.804C281.732 124.661 281.393 124.473 281.121 124.237C280.852 124.005 280.638 123.757 280.479 123.491L281.414 122.835C281.52 122.974 281.654 123.134 281.817 123.312C281.979 123.495 282.201 123.652 282.483 123.785C282.768 123.921 283.141 123.989 283.602 123.989C284.218 123.989 284.727 123.839 285.128 123.541C285.529 123.243 285.729 122.776 285.729 122.139V120.588H285.63C285.544 120.727 285.421 120.9 285.262 121.105C285.106 121.307 284.881 121.488 284.586 121.647C284.294 121.803 283.9 121.881 283.403 121.881C282.786 121.881 282.233 121.735 281.742 121.443C281.255 121.152 280.869 120.727 280.584 120.17C280.302 119.614 280.161 118.937 280.161 118.142C280.161 117.36 280.299 116.679 280.574 116.099C280.849 115.515 281.232 115.065 281.722 114.746C282.213 114.425 282.78 114.264 283.423 114.264C283.92 114.264 284.314 114.347 284.606 114.513C284.901 114.675 285.126 114.861 285.282 115.07C285.441 115.275 285.564 115.444 285.65 115.577H285.769V114.364H286.903V122.219C286.903 122.875 286.754 123.409 286.455 123.82C286.16 124.234 285.763 124.537 285.262 124.729C284.765 124.925 284.211 125.023 283.602 125.023ZM283.562 120.827C284.032 120.827 284.43 120.719 284.755 120.504C285.08 120.288 285.327 119.978 285.496 119.574C285.665 119.17 285.749 118.686 285.749 118.122C285.749 117.572 285.666 117.086 285.501 116.665C285.335 116.245 285.09 115.915 284.765 115.676C284.44 115.437 284.039 115.318 283.562 115.318C283.065 115.318 282.65 115.444 282.319 115.696C281.991 115.948 281.744 116.286 281.578 116.71C281.416 117.134 281.335 117.605 281.335 118.122C281.335 118.652 281.417 119.121 281.583 119.529C281.752 119.933 282.001 120.252 282.329 120.484C282.66 120.712 283.071 120.827 283.562 120.827ZM291.298 122.179C290.814 122.179 290.375 122.088 289.98 121.906C289.586 121.72 289.272 121.453 289.04 121.105C288.808 120.754 288.692 120.33 288.692 119.832C288.692 119.395 288.779 119.04 288.951 118.768C289.123 118.493 289.354 118.278 289.642 118.122C289.93 117.966 290.249 117.85 290.597 117.774C290.948 117.695 291.301 117.632 291.656 117.585C292.12 117.526 292.496 117.481 292.784 117.451C293.076 117.418 293.288 117.363 293.42 117.287C293.556 117.211 293.624 117.078 293.624 116.889V116.849C293.624 116.359 293.49 115.978 293.222 115.706C292.956 115.434 292.554 115.298 292.013 115.298C291.453 115.298 291.014 115.421 290.696 115.666C290.378 115.911 290.154 116.173 290.025 116.452L288.911 116.054C289.11 115.59 289.375 115.229 289.707 114.97C290.041 114.708 290.406 114.526 290.8 114.423C291.198 114.317 291.589 114.264 291.974 114.264C292.219 114.264 292.501 114.294 292.819 114.354C293.14 114.41 293.45 114.528 293.749 114.707C294.05 114.886 294.3 115.156 294.499 115.517C294.698 115.878 294.798 116.362 294.798 116.969V122H293.624V120.966H293.565C293.485 121.132 293.353 121.309 293.167 121.498C292.981 121.687 292.734 121.848 292.426 121.98C292.118 122.113 291.742 122.179 291.298 122.179ZM291.477 121.125C291.941 121.125 292.332 121.034 292.65 120.852C292.971 120.669 293.213 120.434 293.376 120.146C293.541 119.857 293.624 119.554 293.624 119.236V118.162C293.575 118.222 293.465 118.276 293.296 118.326C293.13 118.372 292.938 118.414 292.719 118.45C292.504 118.483 292.294 118.513 292.088 118.54C291.886 118.563 291.722 118.583 291.596 118.599C291.291 118.639 291.006 118.704 290.741 118.793C290.479 118.879 290.267 119.01 290.104 119.186C289.945 119.358 289.866 119.594 289.866 119.892C289.866 120.3 290.017 120.608 290.318 120.817C290.623 121.022 291.009 121.125 291.477 121.125ZM298.112 111.818V122H296.939V111.818H298.112ZM303.364 122.159C302.674 122.159 302.069 121.995 301.549 121.667C301.032 121.339 300.628 120.88 300.336 120.29C300.048 119.7 299.903 119.01 299.903 118.222C299.903 117.426 300.048 116.732 300.336 116.138C300.628 115.545 301.032 115.085 301.549 114.756C302.069 114.428 302.674 114.264 303.364 114.264C304.053 114.264 304.656 114.428 305.173 114.756C305.694 115.085 306.098 115.545 306.386 116.138C306.678 116.732 306.824 117.426 306.824 118.222C306.824 119.01 306.678 119.7 306.386 120.29C306.098 120.88 305.694 121.339 305.173 121.667C304.656 121.995 304.053 122.159 303.364 122.159ZM303.364 121.105C303.887 121.105 304.318 120.971 304.656 120.702C304.994 120.434 305.245 120.081 305.407 119.643C305.569 119.206 305.651 118.732 305.651 118.222C305.651 117.711 305.569 117.236 305.407 116.795C305.245 116.354 304.994 115.998 304.656 115.726C304.318 115.454 303.887 115.318 303.364 115.318C302.84 115.318 302.409 115.454 302.071 115.726C301.733 115.998 301.483 116.354 301.32 116.795C301.158 117.236 301.077 117.711 301.077 118.222C301.077 118.732 301.158 119.206 301.32 119.643C301.483 120.081 301.733 120.434 302.071 120.702C302.409 120.971 302.84 121.105 303.364 121.105ZM308.615 122V114.364H309.748V115.517H309.828C309.967 115.139 310.219 114.833 310.584 114.597C310.948 114.362 311.359 114.244 311.817 114.244C311.903 114.244 312.01 114.246 312.14 114.249C312.269 114.253 312.367 114.258 312.433 114.264V115.457C312.393 115.447 312.302 115.433 312.16 115.413C312.02 115.389 311.873 115.378 311.717 115.378C311.346 115.378 311.015 115.456 310.723 115.612C310.434 115.764 310.206 115.976 310.037 116.248C309.871 116.516 309.788 116.823 309.788 117.168V122H308.615ZM316.793 122.159C316.057 122.159 315.423 121.997 314.889 121.672C314.359 121.344 313.949 120.886 313.661 120.3C313.376 119.71 313.233 119.024 313.233 118.241C313.233 117.459 313.376 116.77 313.661 116.173C313.949 115.573 314.35 115.106 314.864 114.771C315.381 114.433 315.984 114.264 316.674 114.264C317.072 114.264 317.464 114.33 317.852 114.463C318.24 114.596 318.593 114.811 318.911 115.109C319.229 115.404 319.483 115.795 319.672 116.283C319.861 116.77 319.955 117.37 319.955 118.082V118.58H314.069V117.565H318.762C318.762 117.134 318.676 116.75 318.503 116.412C318.334 116.074 318.092 115.807 317.778 115.612C317.466 115.416 317.098 115.318 316.674 115.318C316.206 115.318 315.802 115.434 315.461 115.666C315.123 115.895 314.863 116.193 314.68 116.561C314.498 116.929 314.407 117.323 314.407 117.744V118.42C314.407 118.997 314.506 119.486 314.705 119.887C314.907 120.285 315.187 120.588 315.545 120.797C315.903 121.002 316.319 121.105 316.793 121.105C317.101 121.105 317.38 121.062 317.628 120.976C317.88 120.886 318.097 120.754 318.28 120.578C318.462 120.399 318.603 120.177 318.702 119.912L319.836 120.23C319.716 120.615 319.516 120.953 319.234 121.244C318.952 121.533 318.604 121.758 318.19 121.92C317.776 122.08 317.31 122.159 316.793 122.159Z" fill="#7C7C7C"/>
</g>
<defs>
<filter id="filter0_d_381_624" x="0" y="0" width="388" height="188" filterUnits="userSpaceOnUse" color-interpolation-filters="sRGB">
<feFlood flood-opacity="0" result="BackgroundImageFix"/>
<feColorMatrix in="SourceAlpha" type="matrix" values="0 0 0 0 0 0 0 0 0 0 0 0 0 0 0 0 0 0 127 0" result="hardAlpha"/>
<feOffset dx="-14" dy="14"/>
<feGaussianBlur stdDeviation="10"/>
<feComposite in2="hardAlpha" operator="out"/>
<feColorMatrix type="matrix" values="0 0 0 0 0 0 0 0 0 0 0 0 0 0 0 0 0 0 0.15 0"/>
<feBlend mode="normal" in2="BackgroundImageFix" result="effect1_dropShadow_381_624"/>
<feBlend mode="normal" in="SourceGraphic" in2="effect1_dropShadow_381_624" result="shape"/>
</filter>
</defs>
</svg>
