<svg width="332" height="83" viewBox="0 0 332 83" fill="none" xmlns="http://www.w3.org/2000/svg">
<path d="M127.693 13.4305L127.198 12.5614L127.143 12.5924L127.093 12.6301L127.693 13.4305ZM0.159051 75.8893C-0.139798 76.3538 -0.00555718 76.9725 0.458886 77.2714L8.02743 82.1414C8.49188 82.4402 9.11065 82.306 9.4095 81.8416C9.70834 81.3771 9.5741 80.7583 9.10966 80.4595L2.38206 76.1306L6.71097 69.403C7.00982 68.9385 6.87558 68.3198 6.41114 68.0209C5.94669 67.7221 5.32792 67.8563 5.02907 68.3208L0.159051 75.8893ZM1.21202 77.4077C2.17618 77.1985 3.14359 76.9791 4.11391 76.7499L3.65405 74.8035C2.69533 75.03 1.73987 75.2466 0.787984 75.4532L1.21202 77.4077ZM9.90101 75.2773C11.8025 74.7599 13.7126 74.2081 15.6287 73.6246L15.0461 71.7113C13.1482 72.2893 11.2573 72.8355 9.37591 73.3475L9.90101 75.2773ZM21.3028 71.8115C23.1755 71.1858 25.0517 70.5325 26.9291 69.854L26.2493 67.9731C24.3865 68.6463 22.5256 69.2943 20.669 69.9146L21.3028 71.8115ZM32.5078 67.7668C34.3533 67.0533 36.198 66.3177 38.0395 65.5624L37.2805 63.712C35.4511 64.4623 33.619 65.1929 31.7865 65.9014L32.5078 67.7668ZM43.5236 63.2522C45.3431 62.4658 47.1575 61.6623 48.9645 60.8438L48.1393 59.0219C46.3424 59.8358 44.5387 60.6347 42.7302 61.4163L43.5236 63.2522ZM54.3638 58.3446C56.16 57.4957 57.9468 56.6339 59.722 55.7615L58.8399 53.9665C57.0735 54.8346 55.2959 55.6919 53.5092 56.5364L54.3638 58.3446ZM65.0393 53.1004C66.8136 52.1966 68.5737 51.2842 70.3176 50.3656L69.3855 48.5961C67.6495 49.5106 65.8974 50.4188 64.1315 51.3183L65.0393 53.1004ZM75.5635 47.558C77.3198 46.6033 79.0564 45.6445 80.7711 44.6842L79.7938 42.9393C78.0863 43.8956 76.357 44.8503 74.6083 45.8008L75.5635 47.558ZM85.9386 41.7483C87.6748 40.7479 89.3845 39.7485 91.0649 38.7532L90.0456 37.0324C88.372 38.0237 86.6692 39.019 84.94 40.0154L85.9386 41.7483ZM96.1711 35.6877C97.8951 34.6386 99.5827 33.5975 101.23 32.5678L100.171 30.8717C98.5295 31.8973 96.8486 32.9342 95.1314 33.9791L96.1711 35.6877ZM106.248 29.3898C107.966 28.2874 109.631 27.2033 111.239 26.1419L110.138 24.4726C108.536 25.5293 106.878 26.6089 105.168 27.7067L106.248 29.3898ZM116.178 22.8351C117.89 21.6719 119.519 20.5455 121.061 19.4631L119.911 17.8264C118.379 18.9027 116.757 20.0233 115.054 21.181L116.178 22.8351ZM125.904 15.9965C126.738 15.3872 127.535 14.7981 128.292 14.231L127.093 12.6301C126.342 13.1922 125.552 13.7767 124.724 14.3816L125.904 15.9965ZM128.187 14.2997C129.074 13.7951 129.966 13.3077 130.864 12.8371L129.936 11.0656C129.018 11.5468 128.105 12.0453 127.198 12.5614L128.187 14.2997ZM136.336 10.2044C138.196 9.38649 140.077 8.63518 141.976 7.9481L141.296 6.06736C139.355 6.76945 137.433 7.53737 135.531 8.3736L136.336 10.2044ZM147.757 6.06909C149.705 5.50516 151.67 5.00377 153.651 4.56253L153.216 2.61038C151.196 3.0605 149.19 3.57218 147.201 4.148L147.757 6.06909ZM159.627 3.41865C161.626 3.09696 163.638 2.83232 165.662 2.62237L165.456 0.63304C163.395 0.846753 161.346 1.11625 159.31 1.44407L159.627 3.41865ZM171.735 2.15591C173.757 2.05364 175.789 2.00246 177.829 2.00009L177.827 8.73804e-05C175.755 0.00249487 173.69 0.0544777 171.634 0.158467L171.735 2.15591ZM183.928 2.13514C185.953 2.22611 187.984 2.36228 190.02 2.54146L190.195 0.549157C188.132 0.367554 186.072 0.229448 184.018 0.137156L183.928 2.13514ZM196.094 3.19999C198.105 3.45828 200.119 3.75611 202.135 4.09138L202.463 2.1185C200.424 1.77929 198.385 1.47782 196.349 1.21628L196.094 3.19999ZM208.143 5.19928C210.134 5.60188 212.125 6.03894 214.114 6.50845L214.574 4.56194C212.564 4.08764 210.552 3.64593 208.539 3.23894L208.143 5.19928ZM220.046 8.00458C222.012 8.53202 223.975 9.08932 225.933 9.67449L226.506 7.75824C224.53 7.16782 222.549 6.60534 220.564 6.07286L220.046 8.00458ZM231.773 11.506C233.711 12.1417 235.641 12.803 237.564 13.4879L238.235 11.6039C236.297 10.9135 234.351 10.2468 232.397 9.6057L231.773 11.506ZM243.307 15.6119C245.216 16.3432 247.114 17.0963 249.002 17.869L249.76 16.0181C247.858 15.2398 245.946 14.4812 244.023 13.7444L243.307 15.6119ZM254.645 20.2511C256.522 21.067 258.386 21.9009 260.236 22.7507L261.071 20.9333C259.209 20.0779 257.332 19.2384 255.443 18.4169L254.645 20.2511ZM265.775 25.3619C267.624 26.2557 269.456 27.1637 271.27 28.0839L272.175 26.3002C270.349 25.3744 268.506 24.4607 266.646 23.5613L265.775 25.3619ZM276.714 30.9084C278.531 31.873 280.329 32.848 282.104 33.8311L283.073 32.0816C281.287 31.0927 279.48 30.112 277.651 29.1417L276.714 30.9084ZM287.44 36.8484C289.226 37.8793 290.987 38.9165 292.721 39.9574L293.75 38.2428C292.007 37.196 290.236 36.153 288.44 35.1161L287.44 36.8484ZM297.945 43.1565C299.701 44.2525 301.424 45.3496 303.113 46.4451L304.201 44.7672C302.503 43.6655 300.77 42.5621 299.004 41.46L297.945 43.1565ZM308.223 49.8238C309.949 50.9874 311.633 52.1455 313.273 53.2948L314.421 51.657C312.771 50.5008 311.077 49.3357 309.341 48.1653L308.223 49.8238ZM318.261 56.8617C319.959 58.1012 321.6 59.3254 323.18 60.5294L324.392 58.9387C322.801 57.7262 321.149 56.4938 319.44 55.2462L318.261 56.8617ZM328.018 64.3032C328.821 64.9448 329.604 65.5785 330.366 66.2037L331.634 64.6573C330.865 64.0267 330.076 63.3876 329.267 62.7408L328.018 64.3032Z" fill="#7C7C7C"/>
</svg>
