<svg width="153" height="334" viewBox="0 0 153 334" fill="none" xmlns="http://www.w3.org/2000/svg">
<path d="M0.292893 325.293C-0.0976311 325.683 -0.0976311 326.317 0.292893 326.707L6.65685 333.071C7.04738 333.462 7.68054 333.462 8.07107 333.071C8.46159 332.681 8.46159 332.047 8.07107 331.657L2.41421 326L8.07107 320.343C8.46159 319.953 8.46159 319.319 8.07107 318.929C7.68054 318.538 7.04738 318.538 6.65685 318.929L0.292893 325.293ZM1 2.5C2.03824 2.5 3.07073 2.50771 4.09749 2.52305L4.12737 0.523278C3.0906 0.507784 2.04814 0.5 1 0.5V2.5ZM10.1892 2.7061C12.1969 2.79724 14.1817 2.9183 16.1438 3.06866L16.2966 1.0745C14.3136 0.922542 12.3081 0.800229 10.2799 0.70816L10.1892 2.7061ZM22.0772 3.61963C24.1204 3.84308 26.1377 4.09915 28.1293 4.38709L28.4155 2.40767C26.4008 2.11639 24.3605 1.85742 22.2946 1.63148L22.0772 3.61963ZM34.027 5.34579C36.0021 5.70303 37.9506 6.09253 39.8726 6.51349L40.3005 4.5598C38.3544 4.13356 36.3819 3.73928 34.383 3.37773L34.027 5.34579ZM45.7857 7.92863C47.7282 8.43382 49.6422 8.97219 51.5279 9.54287L52.1072 7.62861C50.1962 7.05026 48.2569 6.50478 46.2891 5.99302L45.7857 7.92863ZM57.2297 11.396C59.1489 12.0637 61.037 12.7661 62.8941 13.5021L63.631 11.6427C61.7473 10.8963 59.8327 10.184 57.8869 9.50707L57.2297 11.396ZM68.3728 15.8098C70.2242 16.6371 72.0429 17.499 73.829 18.3946L74.7254 16.6067C72.9127 15.6978 71.0672 14.8232 69.1887 13.9838L68.3728 15.8098ZM79.1346 21.206C80.8798 22.182 82.5916 23.1914 84.2702 24.2331L85.3248 22.5337C83.6204 21.4761 81.8825 20.4512 80.1108 19.4605L79.1346 21.206ZM89.3249 27.5351C90.9751 28.6688 92.5906 29.8352 94.1716 31.0331L95.3794 29.4389C93.7738 28.2224 92.1332 27.0379 90.4574 25.8867L89.3249 27.5351ZM98.8739 34.7718C100.416 36.0581 101.923 37.3759 103.394 38.7239L104.745 37.2493C103.251 35.8804 101.721 34.5422 100.155 33.2358L98.8739 34.7718ZM107.711 42.8675C109.128 44.2917 110.509 45.7455 111.854 47.2276L113.335 45.8838C111.97 44.3791 110.568 42.903 109.129 41.4569L107.711 42.8675ZM115.78 51.7573C117.057 53.3005 118.299 54.8709 119.504 56.467L121.1 55.2617C119.877 53.642 118.617 52.0483 117.32 50.4819L115.78 51.7573ZM123.016 61.3372C124.151 62.9853 125.25 64.6579 126.313 66.3537L128.007 65.2914C126.929 63.5717 125.815 61.8751 124.664 60.2031L123.016 61.3372ZM129.394 71.5077C130.385 73.2479 131.341 75.0098 132.261 76.7921L134.038 75.8744C133.106 74.0681 132.137 72.282 131.132 70.5177L129.394 71.5077ZM134.907 82.1784C135.753 83.9926 136.565 85.8256 137.341 87.676L139.185 86.9021C138.399 85.0278 137.577 83.1709 136.719 81.3328L134.907 82.1784ZM139.56 93.2613C140.263 95.1335 140.931 97.0216 141.566 98.9243L143.463 98.2917C142.821 96.3657 142.144 94.4542 141.432 92.5584L139.56 93.2613ZM143.366 104.673C143.928 106.59 144.457 108.519 144.953 110.461L146.89 109.966C146.389 108.002 145.854 106.05 145.285 104.11L143.366 104.673ZM146.339 116.319C146.766 118.274 147.16 120.24 147.521 122.215L149.489 121.855C149.123 119.858 148.725 117.87 148.293 115.892L146.339 116.319ZM148.504 128.147C148.799 130.131 149.062 132.123 149.292 134.122L151.279 133.892C151.046 131.873 150.781 129.859 150.483 127.853L148.504 128.147ZM149.884 140.1C150.049 142.098 150.183 144.101 150.285 146.108L152.282 146.007C152.179 143.979 152.044 141.954 151.877 139.935L149.884 140.1ZM150.496 152.122C150.535 154.126 150.543 156.132 150.52 158.139L152.52 158.162C152.543 156.134 152.535 154.108 152.496 152.083L150.496 152.122ZM150.357 164.161C150.272 166.163 150.157 168.165 150.011 170.166L152.006 170.311C152.153 168.29 152.27 166.268 152.355 164.245L150.357 164.161ZM149.481 176.163C149.275 178.158 149.038 180.151 148.77 182.14L150.752 182.407C151.022 180.398 151.262 178.384 151.471 176.369L149.481 176.163ZM147.878 188.093C147.551 190.072 147.194 192.047 146.806 194.015L148.769 194.401C149.16 192.413 149.521 190.419 149.851 188.419L147.878 188.093ZM145.554 199.905C145.107 201.861 144.63 203.81 144.123 205.749L146.058 206.255C146.57 204.295 147.052 202.327 147.504 200.351L145.554 199.905ZM142.512 211.549C141.945 213.476 141.348 215.392 140.722 217.297L142.622 217.922C143.255 215.997 143.858 214.061 144.431 212.114L142.512 211.549ZM138.754 222.977C138.066 224.866 137.349 226.742 136.602 228.604L138.458 229.349C139.213 227.466 139.938 225.57 140.634 223.661L138.754 222.977ZM134.273 234.149C133.466 235.987 132.629 237.81 131.762 239.616L133.566 240.481C134.442 238.654 135.288 236.811 136.104 234.953L134.273 234.149ZM129.069 244.998C128.142 246.775 127.185 248.534 126.2 250.273L127.94 251.259C128.937 249.499 129.904 247.72 130.842 245.924L129.069 244.998ZM123.14 255.462C122.09 257.171 121.012 258.859 119.904 260.526L121.57 261.633C122.691 259.946 123.782 258.237 124.844 256.508L123.14 255.462ZM116.485 265.471C115.314 267.1 114.113 268.706 112.883 270.286L114.462 271.514C115.707 269.913 116.923 268.288 118.109 266.638L116.485 265.471ZM109.107 274.954C107.816 276.489 106.495 277.997 105.146 279.478L106.624 280.825C107.992 279.325 109.329 277.796 110.637 276.242L109.107 274.954ZM101.012 283.836C99.6049 285.261 98.1694 286.656 96.7054 288.021L98.0694 289.484C99.5537 288.1 101.009 286.685 102.435 285.242L101.012 283.836ZM92.228 292.025C90.7082 293.327 89.1601 294.598 87.5838 295.836L88.8193 297.409C90.4181 296.153 91.9883 294.864 93.5295 293.543L92.228 292.025ZM82.7899 299.437C81.164 300.604 79.5104 301.737 77.8292 302.835L78.9227 304.51C80.6287 303.396 82.3066 302.246 83.956 301.062L82.7899 299.437ZM72.741 305.999C71.0237 307.015 69.2795 307.995 67.5085 308.939L68.4487 310.704C70.2461 309.746 72.0164 308.752 73.7592 307.721L72.741 305.999ZM62.1342 311.647C60.3432 312.5 58.5266 313.316 56.6843 314.094L57.4623 315.936C59.3322 315.147 61.1761 314.319 62.9939 313.453L62.1342 311.647ZM51.081 316.313C49.2206 317.001 47.3355 317.652 45.426 318.264L46.0364 320.169C47.9741 319.548 49.8871 318.887 51.7753 318.188L51.081 316.313ZM39.6801 319.967C37.7436 320.494 35.7832 320.983 33.7991 321.431L34.2399 323.382C36.2525 322.927 38.2413 322.432 40.2061 321.896L39.6801 319.967ZM27.9842 322.617C26.0239 322.973 24.0415 323.292 22.0371 323.57L22.3125 325.551C24.3444 325.269 26.3544 324.946 28.3424 324.584L27.9842 322.617ZM16.0488 324.278C14.092 324.468 12.1153 324.622 10.1187 324.738L10.2345 326.735C12.2571 326.617 14.2599 326.462 16.2429 326.268L16.0488 324.278ZM4.06929 324.971C3.05114 324.99 2.02804 325 1 325V327C2.04077 327 3.07665 326.99 4.10763 326.97L4.06929 324.971Z" fill="#7C7C7C"/>
</svg>
