<svg width="332" height="84" viewBox="0 0 332 84" fill="none" xmlns="http://www.w3.org/2000/svg">
<path d="M208.33 65.5953L208.877 66.4323L208.897 66.419L208.917 66.4047L208.33 65.5953ZM331.776 7.63124C332.124 7.20289 332.06 6.57303 331.631 6.22441L324.651 0.543266C324.223 0.194643 323.593 0.259271 323.244 0.687617C322.895 1.11596 322.96 1.74582 323.388 2.09444L329.593 7.14435L324.543 13.3491C324.195 13.7774 324.259 14.4073 324.688 14.7559C325.116 15.1045 325.746 15.0399 326.094 14.6115L331.776 7.63124ZM0.361171 21.2913C1.09042 21.8969 1.84989 22.5197 2.63867 23.1583L3.89714 21.6039C3.11466 20.9704 2.36159 20.3528 1.63883 19.7526L0.361171 21.2913ZM7.35805 26.8909C8.86481 28.0562 10.45 29.2584 12.1094 30.4903L13.3016 28.8844C11.6527 27.6604 10.078 26.4661 8.58161 25.3088L7.35805 26.8909ZM16.9335 34.0023C18.511 35.1287 20.1427 36.273 21.8259 37.4302L22.9589 35.7821C21.2857 34.6317 19.6637 33.4943 18.0958 32.3747L16.9335 34.0023ZM26.7808 40.7729C28.4122 41.8529 30.0846 42.9398 31.7957 44.0299L32.8703 42.3432C31.1692 41.2594 29.5066 40.1789 27.8848 39.1052L26.7808 40.7729ZM36.8691 47.1998C38.5431 48.2253 40.2494 49.2504 41.986 50.272L43.0001 48.5482C41.274 47.5327 39.5779 46.5138 37.9139 45.4944L36.8691 47.1998ZM47.1553 53.2501C48.8725 54.2186 50.6159 55.1811 52.3838 56.1348L53.3334 54.3746C51.5767 53.4269 49.8443 52.4705 48.1378 51.5081L47.1553 53.2501ZM57.6711 58.9216C59.4317 59.8277 61.2139 60.7231 63.0163 61.6052L63.8955 59.8088C62.1055 58.9328 60.3353 58.0434 58.5863 57.1433L57.6711 58.9216ZM68.4181 64.1796C70.2162 65.0133 72.032 65.8321 73.8644 66.6335L74.6658 64.8011C72.8472 64.0056 71.0446 63.1929 69.2594 62.3652L68.4181 64.1796ZM79.3666 68.9658C81.2057 69.7205 83.0594 70.456 84.9266 71.1702L85.6411 69.3021C83.7893 68.5939 81.9505 67.8643 80.1259 67.1156L79.3666 68.9658ZM90.5418 73.2374C92.4194 73.9015 94.3089 74.5424 96.209 75.1579L96.8253 73.2552C94.9426 72.6454 93.07 72.0102 91.2087 71.3519L90.5418 73.2374ZM101.926 76.9217C103.84 77.4826 105.763 78.016 107.695 78.5198L108.199 76.5845C106.288 76.0859 104.384 75.5578 102.488 75.0024L101.926 76.9217ZM113.511 79.9401C115.459 80.3827 117.413 80.7934 119.372 81.1702L119.75 79.2062C117.813 78.8338 115.881 78.4276 113.955 77.9898L113.511 79.9401ZM125.275 82.1975C127.251 82.505 129.231 82.7759 131.214 83.0082L131.447 81.0217C129.489 80.7925 127.534 80.525 125.582 80.2213L125.275 82.1975ZM137.181 83.5874C139.176 83.7404 141.172 83.8522 143.168 83.9205L143.237 81.9217C141.269 81.8544 139.301 81.7442 137.334 81.5933L137.181 83.5874ZM149.167 83.9927C151.168 83.9716 153.168 83.9046 155.166 83.7893L155.051 81.7926C153.085 81.9061 151.117 81.9721 149.146 81.9928L149.167 83.9927ZM161.149 83.2966C163.137 83.083 165.122 82.819 167.101 82.5023L166.786 80.5274C164.841 80.8385 162.89 81.098 160.935 81.3081L161.149 83.2966ZM173.008 81.3956C174.961 80.975 176.908 80.5004 178.847 79.9696L178.319 78.0406C176.416 78.5616 174.505 79.0275 172.587 79.4404L173.008 81.3956ZM184.591 78.2223C186.48 77.5889 188.361 76.8992 190.231 76.1511L189.488 74.2942C187.654 75.028 185.809 75.7046 183.956 76.326L184.591 78.2223ZM195.751 73.7569C197.554 72.9128 199.345 72.0113 201.125 71.0505L200.175 69.2906C198.429 70.2333 196.671 71.1177 194.903 71.9456L195.751 73.7569ZM206.317 68.0558C207.173 67.5293 208.027 66.9882 208.877 66.4323L207.783 64.7583C206.948 65.3041 206.11 65.8352 205.27 66.352L206.317 68.0558ZM208.917 66.4047C209.721 65.8218 210.561 65.2185 211.437 64.5968L210.278 62.9661C209.398 63.5916 208.552 64.1988 207.743 64.7859L208.917 66.4047ZM216.535 61.0419C218.167 59.9232 219.884 58.7638 221.677 57.5716L220.57 55.9061C218.769 57.1034 217.044 58.2681 215.404 59.3922L216.535 61.0419ZM226.882 54.1597C228.58 53.0622 230.331 51.9452 232.129 50.814L231.064 49.1212C229.259 50.2568 227.501 51.3782 225.797 52.4801L226.882 54.1597ZM237.415 47.5328C239.155 46.4672 240.931 45.394 242.737 44.3175L241.714 42.5993C239.9 43.6801 238.117 44.7574 236.37 45.8272L237.415 47.5328ZM248.108 41.1622C249.885 40.1337 251.685 39.1059 253.506 38.0828L252.526 36.3392C250.698 37.3667 248.89 38.3987 247.106 39.4314L248.108 41.1622ZM258.948 35.0723C260.762 34.085 262.592 33.1056 264.433 32.1375L263.503 30.3672C261.652 31.3399 259.814 32.3239 257.992 33.3156L258.948 35.0723ZM269.958 29.2869C271.808 28.3508 273.666 27.4294 275.528 26.526L274.655 24.7265C272.782 25.6351 270.914 26.5615 269.055 27.5024L269.958 29.2869ZM281.143 23.8649C283.032 22.9915 284.921 22.1401 286.807 21.3141L286.005 19.482C284.106 20.3138 282.204 21.1708 280.304 22.0496L281.143 23.8649ZM292.527 18.886C294.458 18.0927 296.382 17.3301 298.296 16.6021L297.584 14.7329C295.654 15.4675 293.714 16.2365 291.767 17.036L292.527 18.886ZM304.124 14.4813C306.107 13.7939 308.074 13.1491 310.018 12.5513L309.43 10.6396C307.462 11.2448 305.473 11.897 303.469 12.5915L304.124 14.4813ZM315.961 10.8556C318.004 10.3203 320.015 9.84494 321.989 9.43485L321.582 7.47667C319.572 7.8943 317.527 8.37768 315.454 8.92096L315.961 10.8556ZM328.057 8.36784C329.085 8.22215 330.101 8.09752 331.102 7.99478L330.898 6.00522C329.87 6.11071 328.829 6.2385 327.776 6.38761L328.057 8.36784Z" fill="#7C7C7C"/>
</svg>
