<svg width="388" height="188" viewBox="0 0 388 188" fill="none" xmlns="http://www.w3.org/2000/svg">
<g filter="url(#filter0_d_381_626)">
<rect x="34" y="6" width="348" height="148" rx="10" fill="white" shape-rendering="crispEdges"/>
<rect x="64.5" y="43.5" width="72" height="72" rx="4" fill="#FFE4EB"/>
<path d="M113.833 66.1666H87.1668C85.3335 66.1666 83.8502 67.6666 83.8502 69.5L83.8335 89.5C83.8335 91.3333 85.3335 92.8333 87.1668 92.8333H113.833C115.667 92.8333 117.167 91.3333 117.167 89.5V69.5C117.167 67.6666 115.667 66.1666 113.833 66.1666ZM113.167 73.25L101.383 80.6166C100.85 80.95 100.15 80.95 99.6168 80.6166L87.8335 73.25C87.6664 73.1561 87.52 73.0294 87.4033 72.8774C87.2866 72.7254 87.2019 72.5513 87.1545 72.3656C87.107 72.1799 87.0977 71.9865 87.1271 71.7971C87.1565 71.6078 87.2241 71.4263 87.3256 71.2638C87.4272 71.1013 87.5607 70.9611 87.718 70.8516C87.8754 70.7422 88.0533 70.6658 88.241 70.6271C88.4287 70.5884 88.6223 70.5882 88.8101 70.6265C88.9979 70.6648 89.1759 70.7408 89.3335 70.85L100.5 77.8333L111.667 70.85C111.824 70.7408 112.002 70.6648 112.19 70.6265C112.378 70.5882 112.572 70.5884 112.759 70.6271C112.947 70.6658 113.125 70.7422 113.282 70.8516C113.44 70.9611 113.573 71.1013 113.675 71.2638C113.776 71.4263 113.844 71.6078 113.873 71.7971C113.903 71.9865 113.893 72.1799 113.846 72.3656C113.798 72.5513 113.714 72.7254 113.597 72.8774C113.48 73.0294 113.334 73.1561 113.167 73.25Z" fill="#F16C8B"/>
<path d="M161.778 50V38.3636H169.074V39.875H163.534V43.4205H168.693V44.9261H163.534V48.4886H169.142V50H161.778ZM171.283 50V41.2727H172.913V42.6932H173.021C173.203 42.2121 173.5 41.8371 173.913 41.5682C174.326 41.2955 174.821 41.1591 175.396 41.1591C175.98 41.1591 176.468 41.2955 176.862 41.5682C177.26 41.8409 177.554 42.2159 177.743 42.6932H177.834C178.042 42.2273 178.374 41.8561 178.828 41.5795C179.283 41.2992 179.824 41.1591 180.453 41.1591C181.245 41.1591 181.891 41.4072 182.391 41.9034C182.894 42.3996 183.146 43.1477 183.146 44.1477V50H181.447V44.3068C181.447 43.7159 181.286 43.2879 180.964 43.0227C180.643 42.7576 180.258 42.625 179.811 42.625C179.258 42.625 178.828 42.7955 178.521 43.1364C178.214 43.4735 178.061 43.9072 178.061 44.4375V50H176.368V44.1989C176.368 43.7254 176.22 43.3447 175.925 43.0568C175.629 42.7689 175.245 42.625 174.771 42.625C174.449 42.625 174.152 42.7102 173.879 42.8807C173.61 43.0473 173.393 43.2803 173.226 43.5795C173.063 43.8788 172.982 44.2254 172.982 44.6193V50H171.283ZM187.963 50.1932C187.41 50.1932 186.91 50.0909 186.463 49.8864C186.016 49.678 185.662 49.3769 185.401 48.983C185.143 48.589 185.014 48.1061 185.014 47.5341C185.014 47.0417 185.109 46.6364 185.298 46.3182C185.488 46 185.743 45.7481 186.065 45.5625C186.387 45.3769 186.747 45.2367 187.145 45.142C187.543 45.0473 187.948 44.9754 188.361 44.9261C188.884 44.8655 189.308 44.8163 189.634 44.7784C189.959 44.7367 190.196 44.6705 190.344 44.5795C190.491 44.4886 190.565 44.3409 190.565 44.1364V44.0966C190.565 43.6004 190.425 43.2159 190.145 42.9432C189.868 42.6705 189.455 42.5341 188.906 42.5341C188.334 42.5341 187.884 42.661 187.554 42.9148C187.228 43.1648 187.003 43.4432 186.878 43.75L185.281 43.3864C185.471 42.8561 185.747 42.428 186.111 42.1023C186.478 41.7727 186.901 41.5341 187.378 41.3864C187.855 41.2348 188.357 41.1591 188.884 41.1591C189.232 41.1591 189.601 41.2008 189.991 41.2841C190.385 41.3636 190.753 41.5114 191.094 41.7273C191.438 41.9432 191.721 42.2519 191.94 42.6534C192.16 43.0511 192.27 43.5682 192.27 44.2045V50H190.611V48.8068H190.543C190.433 49.0265 190.268 49.2424 190.048 49.4545C189.829 49.6667 189.546 49.8428 189.202 49.983C188.857 50.1231 188.444 50.1932 187.963 50.1932ZM188.332 48.8295C188.802 48.8295 189.204 48.7367 189.537 48.5511C189.874 48.3655 190.13 48.1231 190.304 47.8239C190.482 47.5208 190.571 47.197 190.571 46.8523V45.7273C190.51 45.7879 190.393 45.8447 190.219 45.8977C190.048 45.947 189.853 45.9905 189.634 46.0284C189.414 46.0625 189.2 46.0947 188.991 46.125C188.783 46.1515 188.609 46.1742 188.469 46.1932C188.139 46.2348 187.838 46.3049 187.565 46.4034C187.296 46.5019 187.08 46.6439 186.918 46.8295C186.759 47.0114 186.679 47.2538 186.679 47.5568C186.679 47.9773 186.834 48.2955 187.145 48.5114C187.455 48.7235 187.851 48.8295 188.332 48.8295ZM194.533 50V41.2727H196.232V50H194.533ZM195.391 39.9261C195.095 39.9261 194.841 39.8277 194.629 39.6307C194.421 39.4299 194.317 39.1913 194.317 38.9148C194.317 38.6345 194.421 38.3958 194.629 38.1989C194.841 37.9981 195.095 37.8977 195.391 37.8977C195.686 37.8977 195.938 37.9981 196.146 38.1989C196.358 38.3958 196.464 38.6345 196.464 38.9148C196.464 39.1913 196.358 39.4299 196.146 39.6307C195.938 39.8277 195.686 39.9261 195.391 39.9261ZM200.216 38.3636V50H198.517V38.3636H200.216Z" fill="black"/>
<path d="M161.574 80V72.3636H162.747V80H161.574ZM162.17 71.0909C161.942 71.0909 161.745 71.013 161.579 70.8572C161.416 70.7015 161.335 70.5142 161.335 70.2955C161.335 70.0767 161.416 69.8894 161.579 69.7337C161.745 69.5779 161.942 69.5 162.17 69.5C162.399 69.5 162.595 69.5779 162.757 69.7337C162.923 69.8894 163.006 70.0767 163.006 70.2955C163.006 70.5142 162.923 70.7015 162.757 70.8572C162.595 71.013 162.399 71.0909 162.17 71.0909ZM166.069 75.4062V80H164.896V72.3636H166.03V73.5568H166.129C166.308 73.169 166.58 72.8575 166.944 72.6222C167.309 72.3835 167.78 72.2642 168.356 72.2642C168.873 72.2642 169.326 72.3703 169.714 72.5824C170.101 72.7912 170.403 73.1094 170.618 73.5369C170.834 73.9612 170.942 74.4981 170.942 75.1477V80H169.768V75.2273C169.768 74.6274 169.613 74.16 169.301 73.8253C168.989 73.4872 168.562 73.3182 168.018 73.3182C167.644 73.3182 167.309 73.3994 167.014 73.5618C166.722 73.7242 166.492 73.9612 166.323 74.2727C166.154 74.5843 166.069 74.9621 166.069 75.4062ZM176.486 72.3636V73.358H172.37V72.3636H176.486ZM173.603 80V71.3097C173.603 70.8722 173.705 70.5076 173.911 70.2159C174.116 69.9242 174.383 69.7055 174.711 69.5597C175.039 69.4138 175.386 69.3409 175.75 69.3409C176.039 69.3409 176.274 69.3641 176.456 69.4105C176.639 69.4569 176.775 69.5 176.864 69.5398L176.526 70.554C176.466 70.5341 176.383 70.5092 176.277 70.4794C176.175 70.4496 176.039 70.4347 175.87 70.4347C175.482 70.4347 175.202 70.5324 175.029 70.728C174.86 70.9235 174.776 71.2102 174.776 71.5881V80H173.603ZM180.918 80.1591C180.229 80.1591 179.624 79.995 179.104 79.6669C178.587 79.3388 178.182 78.8797 177.891 78.2898C177.602 77.6998 177.458 77.0104 177.458 76.2216C177.458 75.4261 177.602 74.7318 177.891 74.1385C178.182 73.5452 178.587 73.0845 179.104 72.7564C179.624 72.4283 180.229 72.2642 180.918 72.2642C181.608 72.2642 182.211 72.4283 182.728 72.7564C183.248 73.0845 183.653 73.5452 183.941 74.1385C184.233 74.7318 184.379 75.4261 184.379 76.2216C184.379 77.0104 184.233 77.6998 183.941 78.2898C183.653 78.8797 183.248 79.3388 182.728 79.6669C182.211 79.995 181.608 80.1591 180.918 80.1591ZM180.918 79.1051C181.442 79.1051 181.873 78.9709 182.211 78.7024C182.549 78.4339 182.799 78.081 182.962 77.6435C183.124 77.206 183.205 76.732 183.205 76.2216C183.205 75.7112 183.124 75.2356 182.962 74.7947C182.799 74.3539 182.549 73.9976 182.211 73.7259C181.873 73.4541 181.442 73.3182 180.918 73.3182C180.395 73.3182 179.964 73.4541 179.626 73.7259C179.288 73.9976 179.037 74.3539 178.875 74.7947C178.713 75.2356 178.631 75.7112 178.631 76.2216C178.631 76.732 178.713 77.206 178.875 77.6435C179.037 78.081 179.288 78.4339 179.626 78.7024C179.964 78.9709 180.395 79.1051 180.918 79.1051ZM192.036 82.6847C191.022 82.6847 190.125 82.5455 189.346 82.267C188.568 81.992 187.913 81.5859 187.383 81.049C186.852 80.5121 186.451 79.8542 186.18 79.0753C185.908 78.2964 185.772 77.4048 185.772 76.4006C185.772 75.4295 185.909 74.5611 186.184 73.7955C186.463 73.0298 186.866 72.3802 187.393 71.8466C187.923 71.3097 188.566 70.9003 189.322 70.6186C190.081 70.3369 190.939 70.196 191.897 70.196C192.828 70.196 193.644 70.3485 194.343 70.6534C195.046 70.955 195.632 71.3643 196.103 71.8814C196.577 72.3951 196.931 72.9735 197.167 73.6165C197.405 74.2595 197.525 74.9223 197.525 75.6051C197.525 76.0857 197.501 76.5729 197.455 77.0668C197.409 77.5606 197.311 78.0147 197.162 78.429C197.013 78.84 196.782 79.1714 196.471 79.4233C196.162 79.6752 195.745 79.8011 195.218 79.8011C194.986 79.8011 194.731 79.7647 194.452 79.6918C194.174 79.6188 193.927 79.4979 193.711 79.3288C193.496 79.1598 193.368 78.9328 193.329 78.6477H193.269C193.189 78.84 193.067 79.0223 192.901 79.1946C192.739 79.367 192.525 79.5045 192.26 79.6072C191.998 79.71 191.678 79.7547 191.3 79.7415C190.869 79.7249 190.49 79.6288 190.162 79.4531C189.834 79.2741 189.559 79.0322 189.336 78.7273C189.118 78.419 188.952 78.0627 188.839 77.6584C188.73 77.2507 188.675 76.8116 188.675 76.3409C188.675 75.8935 188.742 75.4841 188.874 75.1129C189.007 74.7417 189.191 74.4169 189.426 74.1385C189.665 73.8601 189.943 73.638 190.261 73.4723C190.583 73.3033 190.929 73.1989 191.3 73.1591C191.632 73.1259 191.933 73.1409 192.205 73.2038C192.477 73.2635 192.701 73.3546 192.876 73.4773C193.052 73.5966 193.163 73.7292 193.209 73.875H193.269V73.3182H194.323V77.8125C194.323 78.0909 194.401 78.3362 194.557 78.5483C194.712 78.7604 194.939 78.8665 195.238 78.8665C195.576 78.8665 195.834 78.7505 196.013 78.5185C196.196 78.2865 196.32 77.9285 196.386 77.4446C196.456 76.9607 196.491 76.3409 196.491 75.5852C196.491 75.1411 196.429 74.7036 196.307 74.2727C196.187 73.8385 196.005 73.4325 195.76 73.0547C195.518 72.6768 195.211 72.3437 194.84 72.0554C194.469 71.767 194.033 71.5417 193.532 71.3793C193.035 71.2135 192.47 71.1307 191.837 71.1307C191.058 71.1307 190.361 71.2517 189.744 71.4936C189.131 71.7322 188.609 72.0819 188.178 72.5426C187.751 73 187.424 73.5568 187.199 74.2131C186.977 74.866 186.866 75.6084 186.866 76.4403C186.866 77.2855 186.977 78.0362 187.199 78.6925C187.424 79.3487 187.756 79.9022 188.193 80.353C188.634 80.8037 189.179 81.1451 189.829 81.3771C190.478 81.6125 191.227 81.7301 192.076 81.7301C192.44 81.7301 192.8 81.6953 193.155 81.6257C193.509 81.5561 193.823 81.4799 194.094 81.397C194.366 81.3142 194.562 81.2528 194.681 81.2131L194.959 82.1278C194.754 82.214 194.485 82.3002 194.154 82.3864C193.826 82.4725 193.474 82.5438 193.1 82.6001C192.729 82.6565 192.374 82.6847 192.036 82.6847ZM191.459 78.7273C191.903 78.7273 192.263 78.6378 192.538 78.4588C192.813 78.2798 193.014 78.0097 193.14 77.6484C193.266 77.2872 193.329 76.8314 193.329 76.2812C193.329 75.7244 193.259 75.2902 193.12 74.9787C192.981 74.6671 192.775 74.4484 192.503 74.3224C192.232 74.1965 191.897 74.1335 191.499 74.1335C191.121 74.1335 190.798 74.233 190.53 74.4318C190.265 74.6274 190.061 74.8892 189.918 75.2173C189.779 75.5421 189.709 75.8968 189.709 76.2812C189.709 76.7055 189.766 77.1049 189.878 77.4794C189.991 77.8506 190.175 78.1522 190.43 78.3842C190.685 78.6129 191.028 78.7273 191.459 78.7273ZM202.164 80.1591C201.528 80.1591 200.966 79.9983 200.479 79.6768C199.992 79.352 199.611 78.8946 199.336 78.3047C199.06 77.7114 198.923 77.0104 198.923 76.2017C198.923 75.3996 199.06 74.7036 199.336 74.1136C199.611 73.5237 199.993 73.0679 200.484 72.7464C200.975 72.425 201.541 72.2642 202.184 72.2642C202.681 72.2642 203.074 72.3471 203.363 72.5128C203.654 72.6752 203.876 72.8608 204.029 73.0696C204.185 73.2751 204.306 73.4441 204.392 73.5767H204.491V69.8182H205.664V80H204.531V78.8267H204.392C204.306 78.9659 204.183 79.1416 204.024 79.3537C203.865 79.5625 203.638 79.7498 203.343 79.9155C203.048 80.0779 202.655 80.1591 202.164 80.1591ZM202.324 79.1051C202.794 79.1051 203.192 78.9825 203.517 78.7372C203.842 78.4886 204.088 78.1456 204.257 77.7081C204.426 77.2673 204.511 76.7585 204.511 76.1818C204.511 75.6117 204.428 75.1129 204.262 74.6854C204.097 74.2545 203.851 73.9197 203.527 73.6811C203.202 73.4392 202.801 73.3182 202.324 73.3182C201.826 73.3182 201.412 73.4458 201.081 73.701C200.752 73.9529 200.506 74.2959 200.34 74.7301C200.177 75.161 200.096 75.6449 200.096 76.1818C200.096 76.7254 200.179 77.2192 200.345 77.6634C200.514 78.1042 200.762 78.4555 201.091 78.7173C201.422 78.9759 201.833 79.1051 202.324 79.1051ZM207.976 80V72.3636H209.15V80H207.976ZM208.573 71.0909C208.344 71.0909 208.147 71.013 207.981 70.8572C207.819 70.7015 207.738 70.5142 207.738 70.2955C207.738 70.0767 207.819 69.8894 207.981 69.7337C208.147 69.5779 208.344 69.5 208.573 69.5C208.801 69.5 208.997 69.5779 209.159 69.7337C209.325 69.8894 209.408 70.0767 209.408 70.2955C209.408 70.5142 209.325 70.7015 209.159 70.8572C208.997 71.013 208.801 71.0909 208.573 71.0909ZM214.381 83.0227C213.814 83.0227 213.327 82.9498 212.919 82.804C212.512 82.6615 212.172 82.4725 211.9 82.2372C211.632 82.0052 211.418 81.7566 211.259 81.4915L212.193 80.8352C212.299 80.9744 212.434 81.1335 212.596 81.3125C212.758 81.4948 212.981 81.6522 213.262 81.7848C213.547 81.9207 213.92 81.9886 214.381 81.9886C214.997 81.9886 215.506 81.8395 215.907 81.5412C216.308 81.2429 216.509 80.7756 216.509 80.1392V78.5881H216.409C216.323 78.7273 216.2 78.8996 216.041 79.1051C215.886 79.3073 215.66 79.4879 215.365 79.647C215.074 79.8028 214.679 79.8807 214.182 79.8807C213.566 79.8807 213.012 79.7348 212.521 79.4432C212.034 79.1515 211.648 78.7273 211.363 78.1705C211.081 77.6136 210.941 76.9375 210.941 76.142C210.941 75.3598 211.078 74.6787 211.353 74.0987C211.628 73.5154 212.011 73.0646 212.502 72.7464C212.992 72.425 213.559 72.2642 214.202 72.2642C214.699 72.2642 215.093 72.3471 215.385 72.5128C215.68 72.6752 215.905 72.8608 216.061 73.0696C216.22 73.2751 216.343 73.4441 216.429 73.5767H216.548V72.3636H217.682V80.2188C217.682 80.875 217.533 81.4086 217.235 81.8196C216.94 82.2339 216.542 82.5372 216.041 82.7294C215.544 82.925 214.991 83.0227 214.381 83.0227ZM214.341 78.8267C214.812 78.8267 215.209 78.719 215.534 78.5036C215.859 78.2881 216.106 77.9782 216.275 77.5739C216.444 77.1695 216.529 76.6856 216.529 76.1222C216.529 75.572 216.446 75.0864 216.28 74.6655C216.114 74.2446 215.869 73.9148 215.544 73.6761C215.219 73.4375 214.818 73.3182 214.341 73.3182C213.844 73.3182 213.43 73.4441 213.098 73.696C212.77 73.9479 212.523 74.286 212.357 74.7102C212.195 75.1345 212.114 75.6051 212.114 76.1222C212.114 76.6525 212.197 77.1214 212.362 77.5291C212.531 77.9335 212.78 78.2517 213.108 78.4837C213.44 78.7124 213.851 78.8267 214.341 78.8267ZM219.83 80V72.3636H221.003V80H219.83ZM220.426 71.0909C220.198 71.0909 220 71.013 219.835 70.8572C219.672 70.7015 219.591 70.5142 219.591 70.2955C219.591 70.0767 219.672 69.8894 219.835 69.7337C220 69.5779 220.198 69.5 220.426 69.5C220.655 69.5 220.851 69.5779 221.013 69.7337C221.179 69.8894 221.262 70.0767 221.262 70.2955C221.262 70.5142 221.179 70.7015 221.013 70.8572C220.851 71.013 220.655 71.0909 220.426 71.0909ZM226.473 72.3636V73.358H222.516V72.3636H226.473ZM223.669 70.5341H224.842V77.8125C224.842 78.1439 224.89 78.3925 224.987 78.5582C225.086 78.7206 225.212 78.83 225.364 78.8864C225.52 78.9394 225.684 78.9659 225.857 78.9659C225.986 78.9659 226.092 78.9593 226.175 78.946C226.258 78.9295 226.324 78.9162 226.374 78.9062L226.612 79.9602C226.533 79.9901 226.422 80.0199 226.279 80.0497C226.137 80.0829 225.956 80.0994 225.737 80.0994C225.406 80.0994 225.081 80.0282 224.763 79.8857C224.448 79.7431 224.186 79.526 223.977 79.2344C223.772 78.9427 223.669 78.5748 223.669 78.1307V70.5341ZM230.485 80.179C230.001 80.179 229.562 80.0878 229.168 79.9055C228.773 79.7199 228.46 79.4531 228.228 79.1051C227.996 78.7538 227.88 78.3295 227.88 77.8324C227.88 77.3949 227.966 77.0402 228.138 76.7685C228.311 76.4934 228.541 76.2779 228.83 76.1222C229.118 75.9664 229.436 75.8504 229.784 75.7741C230.135 75.6946 230.488 75.6316 230.843 75.5852C231.307 75.5256 231.683 75.4808 231.972 75.451C232.263 75.4179 232.475 75.3632 232.608 75.2869C232.744 75.2107 232.812 75.0781 232.812 74.8892V74.8494C232.812 74.3589 232.678 73.9777 232.409 73.706C232.144 73.4342 231.741 73.2983 231.201 73.2983C230.641 73.2983 230.202 73.4209 229.884 73.6662C229.565 73.9115 229.342 74.1733 229.212 74.4517L228.099 74.054C228.298 73.59 228.563 73.2287 228.894 72.9702C229.229 72.7083 229.594 72.526 229.988 72.4233C230.386 72.3172 230.777 72.2642 231.161 72.2642C231.406 72.2642 231.688 72.294 232.006 72.3537C232.328 72.41 232.638 72.5277 232.936 72.7067C233.238 72.8857 233.488 73.1558 233.687 73.517C233.886 73.8783 233.985 74.3622 233.985 74.9688V80H232.812V78.9659H232.752C232.673 79.1316 232.54 79.3089 232.354 79.4979C232.169 79.6868 231.922 79.8475 231.614 79.9801C231.305 80.1127 230.929 80.179 230.485 80.179ZM230.664 79.125C231.128 79.125 231.519 79.0339 231.837 78.8516C232.159 78.6693 232.401 78.4339 232.563 78.1456C232.729 77.8572 232.812 77.554 232.812 77.2358V76.1619C232.762 76.2216 232.653 76.2763 232.484 76.326C232.318 76.3724 232.126 76.4138 231.907 76.4503C231.692 76.4834 231.481 76.5133 231.276 76.5398C231.073 76.563 230.909 76.5829 230.783 76.5994C230.478 76.6392 230.193 76.7038 229.928 76.7933C229.666 76.8795 229.454 77.0104 229.292 77.1861C229.133 77.3584 229.053 77.5937 229.053 77.892C229.053 78.2997 229.204 78.608 229.506 78.8168C229.811 79.0223 230.197 79.125 230.664 79.125ZM237.3 69.8182V80H236.127V69.8182H237.3ZM242.551 80.1591C241.835 80.1591 241.219 79.9901 240.702 79.652C240.185 79.3139 239.787 78.8482 239.509 78.255C239.23 77.6617 239.091 76.9839 239.091 76.2216C239.091 75.446 239.233 74.7616 239.518 74.1683C239.807 73.5717 240.208 73.1061 240.722 72.7713C241.239 72.4332 241.842 72.2642 242.531 72.2642C243.068 72.2642 243.552 72.3636 243.983 72.5625C244.414 72.7614 244.767 73.0398 245.042 73.3977C245.317 73.7557 245.488 74.1733 245.554 74.6506H244.381C244.291 74.3026 244.092 73.9943 243.784 73.7259C243.479 73.4541 243.068 73.3182 242.551 73.3182C242.094 73.3182 241.693 73.4375 241.348 73.6761C241.007 73.9115 240.74 74.2446 240.548 74.6754C240.359 75.103 240.264 75.6051 240.264 76.1818C240.264 76.7718 240.357 77.2855 240.543 77.723C240.732 78.1605 240.997 78.5002 241.338 78.7422C241.683 78.9841 242.087 79.1051 242.551 79.1051C242.856 79.1051 243.133 79.0521 243.381 78.946C243.63 78.84 243.84 78.6875 244.013 78.4886C244.185 78.2898 244.308 78.0511 244.381 77.7727H245.554C245.488 78.2235 245.324 78.6295 245.062 78.9908C244.803 79.3487 244.46 79.6338 244.033 79.8459C243.608 80.0547 243.115 80.1591 242.551 80.1591ZM250.371 80.1591C249.682 80.1591 249.077 79.995 248.557 79.6669C248.04 79.3388 247.635 78.8797 247.344 78.2898C247.055 77.6998 246.911 77.0104 246.911 76.2216C246.911 75.4261 247.055 74.7318 247.344 74.1385C247.635 73.5452 248.04 73.0845 248.557 72.7564C249.077 72.4283 249.682 72.2642 250.371 72.2642C251.061 72.2642 251.664 72.4283 252.181 72.7564C252.701 73.0845 253.106 73.5452 253.394 74.1385C253.686 74.7318 253.832 75.4261 253.832 76.2216C253.832 77.0104 253.686 77.6998 253.394 78.2898C253.106 78.8797 252.701 79.3388 252.181 79.6669C251.664 79.995 251.061 80.1591 250.371 80.1591ZM250.371 79.1051C250.895 79.1051 251.326 78.9709 251.664 78.7024C252.002 78.4339 252.252 78.081 252.415 77.6435C252.577 77.206 252.658 76.732 252.658 76.2216C252.658 75.7112 252.577 75.2356 252.415 74.7947C252.252 74.3539 252.002 73.9976 251.664 73.7259C251.326 73.4541 250.895 73.3182 250.371 73.3182C249.848 73.3182 249.417 73.4541 249.079 73.7259C248.741 73.9976 248.491 74.3539 248.328 74.7947C248.166 75.2356 248.085 75.7112 248.085 76.2216C248.085 76.732 248.166 77.206 248.328 77.6435C248.491 78.081 248.741 78.4339 249.079 78.7024C249.417 78.9709 249.848 79.1051 250.371 79.1051ZM255.623 80V72.3636H256.756V73.517H256.836C256.975 73.1392 257.227 72.8326 257.591 72.5973C257.956 72.362 258.367 72.2443 258.824 72.2443C258.911 72.2443 259.018 72.246 259.148 72.2493C259.277 72.2526 259.375 72.2576 259.441 72.2642V73.4574C259.401 73.4474 259.31 73.4325 259.167 73.4126C259.028 73.3894 258.881 73.3778 258.725 73.3778C258.354 73.3778 258.022 73.4557 257.731 73.6115C257.442 73.764 257.214 73.9761 257.045 74.2479C256.879 74.5163 256.796 74.8229 256.796 75.1676V80H255.623ZM266.241 74.0739L265.187 74.3722C265.121 74.1965 265.023 74.0258 264.893 73.8601C264.768 73.6911 264.595 73.5518 264.376 73.4425C264.158 73.3331 263.878 73.2784 263.536 73.2784C263.069 73.2784 262.679 73.3861 262.368 73.6016C262.06 73.8137 261.906 74.0838 261.906 74.4119C261.906 74.7036 262.012 74.9339 262.224 75.103C262.436 75.272 262.767 75.4129 263.218 75.5256L264.352 75.804C265.034 75.9697 265.543 76.2232 265.878 76.5646C266.213 76.9027 266.38 77.3385 266.38 77.8722C266.38 78.3097 266.254 78.7008 266.002 79.0455C265.754 79.3902 265.406 79.6619 264.958 79.8608C264.511 80.0597 263.99 80.1591 263.397 80.1591C262.618 80.1591 261.973 79.9901 261.463 79.652C260.953 79.3139 260.629 78.8201 260.494 78.1705L261.607 77.892C261.713 78.303 261.914 78.6113 262.209 78.8168C262.507 79.0223 262.897 79.125 263.377 79.125C263.924 79.125 264.358 79.009 264.68 78.777C265.004 78.5417 265.167 78.2599 265.167 77.9318C265.167 77.6667 265.074 77.4446 264.888 77.2656C264.703 77.0833 264.418 76.9474 264.033 76.858L262.761 76.5597C262.061 76.3939 261.548 76.1371 261.219 75.7891C260.895 75.4377 260.732 74.9986 260.732 74.4716C260.732 74.0407 260.853 73.6596 261.095 73.3281C261.34 72.9967 261.674 72.7365 262.094 72.5476C262.519 72.3587 262.999 72.2642 263.536 72.2642C264.292 72.2642 264.885 72.4299 265.316 72.7614C265.75 73.0928 266.058 73.5303 266.241 74.0739ZM271.348 80.1591C270.612 80.1591 269.977 79.9967 269.444 79.6719C268.913 79.3438 268.504 78.8864 268.216 78.2997C267.931 77.7098 267.788 77.0237 267.788 76.2415C267.788 75.4593 267.931 74.7699 268.216 74.1733C268.504 73.5734 268.905 73.1061 269.419 72.7713C269.936 72.4332 270.539 72.2642 271.229 72.2642C271.626 72.2642 272.019 72.3305 272.407 72.4631C272.795 72.5956 273.148 72.8111 273.466 73.1094C273.784 73.4044 274.037 73.7955 274.226 74.2827C274.415 74.7699 274.51 75.3698 274.51 76.0824V76.5795H268.623V75.5653H273.317C273.317 75.1345 273.23 74.75 273.058 74.4119C272.889 74.0739 272.647 73.8071 272.332 73.6115C272.021 73.416 271.653 73.3182 271.229 73.3182C270.761 73.3182 270.357 73.4342 270.015 73.6662C269.677 73.8949 269.417 74.1932 269.235 74.5611C269.053 74.929 268.961 75.3234 268.961 75.7443V76.4205C268.961 76.9972 269.061 77.486 269.26 77.8871C269.462 78.2848 269.742 78.5881 270.1 78.7969C270.458 79.0024 270.874 79.1051 271.348 79.1051C271.656 79.1051 271.934 79.062 272.183 78.9759C272.435 78.8864 272.652 78.7538 272.834 78.5781C273.017 78.3991 273.157 78.1771 273.257 77.9119L274.39 78.2301C274.271 78.6146 274.071 78.9527 273.789 79.2443C273.507 79.5327 273.159 79.758 272.745 79.9205C272.331 80.0795 271.865 80.1591 271.348 80.1591ZM277.468 69.8182V80H276.295V69.8182H277.468ZM280.472 80.0795C280.227 80.0795 280.016 79.9917 279.841 79.8161C279.665 79.6404 279.577 79.4299 279.577 79.1847C279.577 78.9394 279.665 78.7289 279.841 78.5533C280.016 78.3776 280.227 78.2898 280.472 78.2898C280.717 78.2898 280.928 78.3776 281.103 78.5533C281.279 78.7289 281.367 78.9394 281.367 79.1847C281.367 79.3471 281.325 79.4962 281.243 79.6321C281.163 79.768 281.055 79.8774 280.919 79.9602C280.787 80.0398 280.638 80.0795 280.472 80.0795ZM286.575 80.1591C285.859 80.1591 285.242 79.9901 284.725 79.652C284.208 79.3139 283.81 78.8482 283.532 78.255C283.254 77.6617 283.114 76.9839 283.114 76.2216C283.114 75.446 283.257 74.7616 283.542 74.1683C283.83 73.5717 284.231 73.1061 284.745 72.7713C285.262 72.4332 285.865 72.2642 286.555 72.2642C287.092 72.2642 287.576 72.3636 288.006 72.5625C288.437 72.7614 288.79 73.0398 289.065 73.3977C289.34 73.7557 289.511 74.1733 289.577 74.6506H288.404C288.315 74.3026 288.116 73.9943 287.808 73.7259C287.503 73.4541 287.092 73.3182 286.575 73.3182C286.117 73.3182 285.716 73.4375 285.371 73.6761C285.03 73.9115 284.763 74.2446 284.571 74.6754C284.382 75.103 284.288 75.6051 284.288 76.1818C284.288 76.7718 284.38 77.2855 284.566 77.723C284.755 78.1605 285.02 78.5002 285.362 78.7422C285.706 78.9841 286.111 79.1051 286.575 79.1051C286.879 79.1051 287.156 79.0521 287.405 78.946C287.653 78.84 287.864 78.6875 288.036 78.4886C288.209 78.2898 288.331 78.0511 288.404 77.7727H289.577C289.511 78.2235 289.347 78.6295 289.085 78.9908C288.827 79.3487 288.484 79.6338 288.056 79.8459C287.632 80.0547 287.138 80.1591 286.575 80.1591ZM294.395 80.1591C293.705 80.1591 293.101 79.995 292.58 79.6669C292.063 79.3388 291.659 78.8797 291.367 78.2898C291.079 77.6998 290.935 77.0104 290.935 76.2216C290.935 75.4261 291.079 74.7318 291.367 74.1385C291.659 73.5452 292.063 73.0845 292.58 72.7564C293.101 72.4283 293.705 72.2642 294.395 72.2642C295.084 72.2642 295.688 72.4283 296.205 72.7564C296.725 73.0845 297.129 73.5452 297.418 74.1385C297.709 74.7318 297.855 75.4261 297.855 76.2216C297.855 77.0104 297.709 77.6998 297.418 78.2898C297.129 78.8797 296.725 79.3388 296.205 79.6669C295.688 79.995 295.084 80.1591 294.395 80.1591ZM294.395 79.1051C294.919 79.1051 295.349 78.9709 295.688 78.7024C296.026 78.4339 296.276 78.081 296.438 77.6435C296.601 77.206 296.682 76.732 296.682 76.2216C296.682 75.7112 296.601 75.2356 296.438 74.7947C296.276 74.3539 296.026 73.9976 295.688 73.7259C295.349 73.4541 294.919 73.3182 294.395 73.3182C293.871 73.3182 293.44 73.4541 293.102 73.7259C292.764 73.9976 292.514 74.3539 292.352 74.7947C292.189 75.2356 292.108 75.7112 292.108 76.2216C292.108 76.732 292.189 77.206 292.352 77.6435C292.514 78.081 292.764 78.4339 293.102 78.7024C293.44 78.9709 293.871 79.1051 294.395 79.1051ZM299.646 80V72.3636H300.78V73.5568H300.879C301.038 73.1491 301.295 72.8326 301.65 72.6072C302.004 72.3786 302.43 72.2642 302.927 72.2642C303.431 72.2642 303.85 72.3786 304.185 72.6072C304.523 72.8326 304.787 73.1491 304.976 73.5568H305.055C305.251 73.1624 305.544 72.8492 305.935 72.6172C306.326 72.3819 306.795 72.2642 307.342 72.2642C308.025 72.2642 308.583 72.478 309.018 72.9055C309.452 73.3298 309.669 73.991 309.669 74.8892V80H308.496V74.8892C308.496 74.3258 308.341 73.9231 308.033 73.6811C307.725 73.4392 307.362 73.3182 306.944 73.3182C306.407 73.3182 305.992 73.4806 305.697 73.8054C305.402 74.1269 305.254 74.5346 305.254 75.0284V80H304.061V74.7699C304.061 74.3357 303.92 73.986 303.638 73.7209C303.357 73.4524 302.994 73.3182 302.55 73.3182C302.245 73.3182 301.96 73.3994 301.694 73.5618C301.433 73.7242 301.22 73.9496 301.058 74.2379C300.899 74.523 300.819 74.8527 300.819 75.2273V80H299.646Z" fill="#7C7C7C"/>
</g>
<defs>
<filter id="filter0_d_381_626" x="0" y="0" width="388" height="188" filterUnits="userSpaceOnUse" color-interpolation-filters="sRGB">
<feFlood flood-opacity="0" result="BackgroundImageFix"/>
<feColorMatrix in="SourceAlpha" type="matrix" values="0 0 0 0 0 0 0 0 0 0 0 0 0 0 0 0 0 0 127 0" result="hardAlpha"/>
<feOffset dx="-14" dy="14"/>
<feGaussianBlur stdDeviation="10"/>
<feComposite in2="hardAlpha" operator="out"/>
<feColorMatrix type="matrix" values="0 0 0 0 0 0 0 0 0 0 0 0 0 0 0 0 0 0 0.15 0"/>
<feBlend mode="normal" in2="BackgroundImageFix" result="effect1_dropShadow_381_626"/>
<feBlend mode="normal" in="SourceGraphic" in2="effect1_dropShadow_381_626" result="shape"/>
</filter>
</defs>
</svg>
