<svg width="388" height="188" viewBox="0 0 388 188" fill="none" xmlns="http://www.w3.org/2000/svg">
<g filter="url(#filter0_d_381_625)">
<rect x="34" y="6" width="348" height="148" rx="10" fill="white" shape-rendering="crispEdges"/>
<rect x="64.5" y="43.5" width="72" height="72" rx="4" fill="#F4F0FD"/>
<path d="M98.2102 71.305L92.0252 65.1216L92.7552 64.3983C93.6985 63.455 95.3468 63.455 96.2902 64.3983L98.9335 67.0416C99.4068 67.515 99.6668 68.1433 99.6668 68.81C99.6668 69.4766 99.4068 70.105 98.9368 70.5766L98.2102 71.305ZM109.423 81.065C110.367 80.1216 112.015 80.1216 112.958 81.065L115.602 83.7083C116.073 84.1816 116.333 84.81 116.333 85.4766C116.333 86.1433 116.073 86.7716 115.598 87.2466L114.87 87.9666L108.698 81.795L109.423 81.065ZM89.7718 67.3816L90.3618 66.7916L96.5418 72.9716L95.4585 74.0533C95.3809 74.1307 95.3193 74.2227 95.2773 74.3239C95.2353 74.4251 95.2137 74.5337 95.2137 74.6433C95.2137 74.7529 95.2353 74.8614 95.2773 74.9627C95.3193 75.0639 95.3809 75.1559 95.4585 75.2333L104.768 84.5433C104.927 84.6944 105.138 84.7787 105.358 84.7787C105.577 84.7787 105.788 84.6944 105.947 84.5433L107.03 83.46L113.2 89.6433L112.61 90.2333C112.177 90.6666 110.533 92.075 107.517 92.075C104.823 92.075 100.423 90.8883 94.7668 85.2333C83.4785 73.9416 89.5035 67.65 89.7718 67.3816Z" fill="#7542E5"/>
<path d="M161.778 50V38.3636H165.926C166.831 38.3636 167.581 38.5284 168.176 38.858C168.771 39.1875 169.216 39.6383 169.511 40.2102C169.807 40.7784 169.955 41.4186 169.955 42.1307C169.955 42.8466 169.805 43.4905 169.506 44.0625C169.21 44.6307 168.763 45.0814 168.165 45.4148C167.57 45.7443 166.822 45.9091 165.92 45.9091H163.068V44.4205H165.761C166.333 44.4205 166.797 44.322 167.153 44.125C167.509 43.9242 167.771 43.6515 167.938 43.3068C168.104 42.9621 168.188 42.5701 168.188 42.1307C168.188 41.6913 168.104 41.3011 167.938 40.9602C167.771 40.6193 167.508 40.3523 167.148 40.1591C166.792 39.9659 166.322 39.8693 165.739 39.8693H163.534V50H161.778ZM173.575 44.8182V50H171.876V38.3636H173.553V42.6932H173.661C173.865 42.2235 174.178 41.8504 174.598 41.5739C175.018 41.2973 175.568 41.1591 176.246 41.1591C176.844 41.1591 177.367 41.2822 177.814 41.5284C178.265 41.7746 178.613 42.142 178.859 42.6307C179.109 43.1155 179.234 43.7216 179.234 44.4489V50H177.536V44.6534C177.536 44.0133 177.371 43.517 177.041 43.1648C176.712 42.8087 176.253 42.6307 175.666 42.6307C175.265 42.6307 174.905 42.7159 174.587 42.8864C174.272 43.0568 174.024 43.3068 173.842 43.6364C173.664 43.9621 173.575 44.3561 173.575 44.8182ZM185.178 50.1761C184.359 50.1761 183.645 49.9886 183.036 49.6136C182.426 49.2386 181.952 48.714 181.615 48.0398C181.278 47.3655 181.109 46.5777 181.109 45.6761C181.109 44.7708 181.278 43.9792 181.615 43.3011C181.952 42.6231 182.426 42.0966 183.036 41.7216C183.645 41.3466 184.359 41.1591 185.178 41.1591C185.996 41.1591 186.71 41.3466 187.32 41.7216C187.929 42.0966 188.403 42.6231 188.74 43.3011C189.077 43.9792 189.246 44.7708 189.246 45.6761C189.246 46.5777 189.077 47.3655 188.74 48.0398C188.403 48.714 187.929 49.2386 187.32 49.6136C186.71 49.9886 185.996 50.1761 185.178 50.1761ZM185.183 48.75C185.714 48.75 186.153 48.6098 186.501 48.3295C186.85 48.0492 187.107 47.6761 187.274 47.2102C187.445 46.7443 187.53 46.2311 187.53 45.6705C187.53 45.1136 187.445 44.6023 187.274 44.1364C187.107 43.6667 186.85 43.2898 186.501 43.0057C186.153 42.7216 185.714 42.5795 185.183 42.5795C184.649 42.5795 184.206 42.7216 183.854 43.0057C183.505 43.2898 183.246 43.6667 183.075 44.1364C182.909 44.6023 182.825 45.1136 182.825 45.6705C182.825 46.2311 182.909 46.7443 183.075 47.2102C183.246 47.6761 183.505 48.0492 183.854 48.3295C184.206 48.6098 184.649 48.75 185.183 48.75ZM192.841 44.8182V50H191.142V41.2727H192.773V42.6932H192.881C193.081 42.2311 193.396 41.8598 193.824 41.5795C194.256 41.2992 194.799 41.1591 195.455 41.1591C196.049 41.1591 196.57 41.2841 197.017 41.5341C197.464 41.7803 197.811 42.1477 198.057 42.6364C198.303 43.125 198.426 43.7292 198.426 44.4489V50H196.727V44.6534C196.727 44.0208 196.563 43.5265 196.233 43.1705C195.903 42.8106 195.451 42.6307 194.875 42.6307C194.481 42.6307 194.131 42.7159 193.824 42.8864C193.521 43.0568 193.28 43.3068 193.102 43.6364C192.928 43.9621 192.841 44.3561 192.841 44.8182ZM204.466 50.1761C203.606 50.1761 202.866 49.9924 202.244 49.625C201.627 49.2538 201.15 48.733 200.812 48.0625C200.479 47.3883 200.312 46.5985 200.312 45.6932C200.312 44.7992 200.479 44.0114 200.812 43.3295C201.15 42.6477 201.619 42.1155 202.222 41.733C202.828 41.3504 203.536 41.1591 204.347 41.1591C204.839 41.1591 205.316 41.2405 205.778 41.4034C206.241 41.5663 206.655 41.822 207.023 42.1705C207.39 42.5189 207.68 42.9716 207.892 43.5284C208.104 44.0814 208.21 44.7538 208.21 45.5455V46.1477H201.273V44.875H206.545C206.545 44.428 206.455 44.0322 206.273 43.6875C206.091 43.339 205.835 43.0644 205.506 42.8636C205.18 42.6629 204.797 42.5625 204.358 42.5625C203.881 42.5625 203.464 42.6799 203.108 42.9148C202.756 43.1458 202.483 43.4489 202.29 43.8239C202.1 44.1951 202.006 44.5985 202.006 45.0341V46.0284C202.006 46.6117 202.108 47.108 202.312 47.517C202.521 47.9261 202.811 48.2386 203.182 48.4545C203.553 48.6667 203.987 48.7727 204.483 48.7727C204.805 48.7727 205.098 48.7273 205.364 48.6364C205.629 48.5417 205.858 48.4015 206.051 48.2159C206.244 48.0303 206.392 47.8011 206.494 47.5284L208.102 47.8182C207.973 48.2917 207.742 48.7064 207.409 49.0625C207.08 49.4148 206.665 49.6894 206.165 49.8864C205.669 50.0795 205.102 50.1761 204.466 50.1761ZM215.449 50.108C215.138 50.108 214.871 49.9981 214.648 49.7784C214.424 49.5549 214.312 49.286 214.312 48.9716C214.312 48.661 214.424 48.3958 214.648 48.1761C214.871 47.9527 215.138 47.8409 215.449 47.8409C215.759 47.8409 216.027 47.9527 216.25 48.1761C216.473 48.3958 216.585 48.661 216.585 48.9716C216.585 49.1799 216.532 49.3712 216.426 49.5455C216.324 49.7159 216.188 49.8523 216.017 49.9545C215.847 50.0568 215.657 50.108 215.449 50.108ZM215.449 43.7557C215.138 43.7557 214.871 43.6439 214.648 43.4205C214.424 43.197 214.312 42.9299 214.312 42.6193C214.312 42.3087 214.424 42.0436 214.648 41.8239C214.871 41.6004 215.138 41.4886 215.449 41.4886C215.759 41.4886 216.027 41.6004 216.25 41.8239C216.473 42.0436 216.585 42.3087 216.585 42.6193C216.585 42.8277 216.532 43.0189 216.426 43.1932C216.324 43.3636 216.188 43.5 216.017 43.6023C215.847 43.7045 215.657 43.7557 215.449 43.7557Z" fill="black"/>
<path d="M164.557 78.2102V71.6477H165.67V78.2102H164.557ZM161.832 75.4858V74.3722H168.395V75.4858H161.832ZM174.024 69.679C174.442 69.6823 174.859 69.7618 175.277 69.9176C175.694 70.0734 176.076 70.3319 176.42 70.6932C176.765 71.0511 177.042 71.54 177.251 72.1598C177.459 72.7796 177.564 73.5568 177.564 74.4915C177.564 75.3963 177.478 76.2 177.305 76.9027C177.136 77.602 176.891 78.192 176.569 78.6726C176.251 79.1532 175.863 79.5178 175.406 79.7663C174.952 80.0149 174.438 80.1392 173.865 80.1392C173.295 80.1392 172.786 80.0265 172.339 79.8011C171.894 79.5724 171.53 79.2559 171.245 78.8516C170.963 78.4439 170.782 77.9716 170.703 77.4347H171.916C172.025 77.902 172.242 78.2881 172.567 78.593C172.895 78.8946 173.328 79.0455 173.865 79.0455C174.65 79.0455 175.27 78.7024 175.724 78.0163C176.182 77.3303 176.41 76.3608 176.41 75.108H176.331C176.145 75.3864 175.925 75.6267 175.67 75.8288C175.414 76.031 175.131 76.1868 174.819 76.2962C174.508 76.4055 174.176 76.4602 173.825 76.4602C173.242 76.4602 172.706 76.3161 172.219 76.0277C171.735 75.736 171.348 75.3366 171.056 74.8295C170.768 74.3191 170.623 73.7358 170.623 73.0795C170.623 72.4564 170.763 71.8864 171.041 71.3693C171.323 70.849 171.717 70.4347 172.224 70.1264C172.735 69.8182 173.335 69.669 174.024 69.679ZM174.024 70.7727C173.606 70.7727 173.23 70.8771 172.895 71.0859C172.564 71.2914 172.3 71.5698 172.105 71.9212C171.913 72.2692 171.817 72.6553 171.817 73.0795C171.817 73.5038 171.909 73.8899 172.095 74.2379C172.284 74.5826 172.541 74.8577 172.866 75.0632C173.194 75.2654 173.567 75.3665 173.984 75.3665C174.299 75.3665 174.592 75.3052 174.864 75.1825C175.136 75.0566 175.373 74.8859 175.575 74.6705C175.781 74.4517 175.941 74.2048 176.057 73.9297C176.173 73.6513 176.231 73.3613 176.231 73.0597C176.231 72.6619 176.135 72.2891 175.943 71.9411C175.754 71.593 175.492 71.3113 175.157 71.0959C174.826 70.8804 174.448 70.7727 174.024 70.7727ZM183.098 69.8182V80H181.865V71.1108H181.806L179.32 72.7614V71.5085L181.865 69.8182H183.098ZM189.288 80.1392C188.605 80.1392 188.002 80.0182 187.478 79.7763C186.958 79.531 186.552 79.1946 186.26 78.767C185.969 78.3362 185.824 77.8456 185.828 77.2955C185.824 76.8646 185.909 76.4669 186.081 76.1023C186.254 75.7344 186.489 75.4278 186.787 75.1825C187.089 74.9339 187.425 74.7765 187.797 74.7102V74.6506C187.309 74.5246 186.922 74.2512 186.633 73.8303C186.345 73.406 186.202 72.9238 186.206 72.3835C186.202 71.8665 186.333 71.4041 186.598 70.9964C186.864 70.5888 187.228 70.2673 187.692 70.032C188.159 69.7966 188.691 69.679 189.288 69.679C189.878 69.679 190.405 69.7966 190.869 70.032C191.333 70.2673 191.698 70.5888 191.963 70.9964C192.231 71.4041 192.367 71.8665 192.37 72.3835C192.367 72.9238 192.22 73.406 191.928 73.8303C191.64 74.2512 191.257 74.5246 190.779 74.6506V74.7102C191.147 74.7765 191.479 74.9339 191.774 75.1825C192.069 75.4278 192.304 75.7344 192.48 76.1023C192.655 76.4669 192.745 76.8646 192.748 77.2955C192.745 77.8456 192.596 78.3362 192.301 78.767C192.009 79.1946 191.603 79.531 191.083 79.7763C190.566 80.0182 189.967 80.1392 189.288 80.1392ZM189.288 79.0455C189.749 79.0455 190.146 78.9709 190.481 78.8217C190.816 78.6726 191.074 78.4621 191.257 78.1903C191.439 77.9186 191.532 77.6004 191.535 77.2358C191.532 76.8513 191.432 76.5116 191.237 76.2166C191.041 75.9216 190.775 75.6896 190.436 75.5206C190.102 75.3516 189.719 75.267 189.288 75.267C188.854 75.267 188.466 75.3516 188.125 75.5206C187.787 75.6896 187.52 75.9216 187.324 76.2166C187.132 76.5116 187.038 76.8513 187.041 77.2358C187.038 77.6004 187.125 77.9186 187.304 78.1903C187.487 78.4621 187.747 78.6726 188.085 78.8217C188.423 78.9709 188.824 79.0455 189.288 79.0455ZM189.288 74.2131C189.653 74.2131 189.976 74.1402 190.257 73.9943C190.542 73.8485 190.766 73.6446 190.929 73.3828C191.091 73.121 191.174 72.8144 191.177 72.4631C191.174 72.1184 191.093 71.8184 190.934 71.5632C190.775 71.3047 190.554 71.1058 190.272 70.9666C189.991 70.8241 189.663 70.7528 189.288 70.7528C188.907 70.7528 188.574 70.8241 188.289 70.9666C188.004 71.1058 187.783 71.3047 187.627 71.5632C187.472 71.8184 187.395 72.1184 187.399 72.4631C187.395 72.8144 187.473 73.121 187.632 73.3828C187.795 73.6446 188.019 73.8485 188.304 73.9943C188.589 74.1402 188.917 74.2131 189.288 74.2131ZM197.975 80.1392C197.226 80.1392 196.588 79.9354 196.061 79.5277C195.534 79.1167 195.131 78.5218 194.852 77.7429C194.574 76.9607 194.435 76.0161 194.435 74.9091C194.435 73.8087 194.574 72.8691 194.852 72.0902C195.134 71.308 195.539 70.7114 196.066 70.3004C196.596 69.8861 197.232 69.679 197.975 69.679C198.717 69.679 199.352 69.8861 199.879 70.3004C200.409 70.7114 200.813 71.308 201.092 72.0902C201.374 72.8691 201.514 73.8087 201.514 74.9091C201.514 76.0161 201.375 76.9607 201.097 77.7429C200.818 78.5218 200.416 79.1167 199.889 79.5277C199.362 79.9354 198.724 80.1392 197.975 80.1392ZM197.975 79.0455C198.717 79.0455 199.294 78.6875 199.705 77.9716C200.116 77.2557 200.321 76.2348 200.321 74.9091C200.321 74.0275 200.227 73.2768 200.038 72.657C199.852 72.0372 199.584 71.5649 199.232 71.2401C198.884 70.9152 198.465 70.7528 197.975 70.7528C197.239 70.7528 196.664 71.1158 196.249 71.8416C195.835 72.5642 195.628 73.5866 195.628 74.9091C195.628 75.7907 195.721 76.5398 195.906 77.1562C196.092 77.7727 196.359 78.2417 196.707 78.5632C197.058 78.8847 197.481 79.0455 197.975 79.0455ZM206.983 69.8182V80H205.75V71.1108H205.691L203.205 72.7614V71.5085L205.75 69.8182H206.983ZM213.153 69.679C213.57 69.6823 213.988 69.7618 214.406 69.9176C214.823 70.0734 215.204 70.3319 215.549 70.6932C215.894 71.0511 216.171 71.54 216.379 72.1598C216.588 72.7796 216.693 73.5568 216.693 74.4915C216.693 75.3963 216.606 76.2 216.434 76.9027C216.265 77.602 216.02 78.192 215.698 78.6726C215.38 79.1532 214.992 79.5178 214.535 79.7663C214.081 80.0149 213.567 80.1392 212.994 80.1392C212.424 80.1392 211.915 80.0265 211.468 79.8011C211.023 79.5724 210.659 79.2559 210.374 78.8516C210.092 78.4439 209.911 77.9716 209.832 77.4347H211.045C211.154 77.902 211.371 78.2881 211.696 78.593C212.024 78.8946 212.457 79.0455 212.994 79.0455C213.779 79.0455 214.399 78.7024 214.853 78.0163C215.311 77.3303 215.539 76.3608 215.539 75.108H215.46C215.274 75.3864 215.054 75.6267 214.798 75.8288C214.543 76.031 214.26 76.1868 213.948 76.2962C213.637 76.4055 213.305 76.4602 212.954 76.4602C212.371 76.4602 211.835 76.3161 211.348 76.0277C210.864 75.736 210.477 75.3366 210.185 74.8295C209.896 74.3191 209.752 73.7358 209.752 73.0795C209.752 72.4564 209.892 71.8864 210.17 71.3693C210.452 70.849 210.846 70.4347 211.353 70.1264C211.864 69.8182 212.463 69.669 213.153 69.679ZM213.153 70.7727C212.735 70.7727 212.359 70.8771 212.024 71.0859C211.693 71.2914 211.429 71.5698 211.234 71.9212C211.042 72.2692 210.945 72.6553 210.945 73.0795C210.945 73.5038 211.038 73.8899 211.224 74.2379C211.413 74.5826 211.67 74.8577 211.994 75.0632C212.323 75.2654 212.695 75.3665 213.113 75.3665C213.428 75.3665 213.721 75.3052 213.993 75.1825C214.265 75.0566 214.502 74.8859 214.704 74.6705C214.91 74.4517 215.07 74.2048 215.186 73.9297C215.302 73.6513 215.36 73.3613 215.36 73.0597C215.36 72.6619 215.264 72.2891 215.072 71.9411C214.883 71.593 214.621 71.3113 214.286 71.0959C213.955 70.8804 213.577 70.7727 213.153 70.7727ZM221.889 69.679C222.307 69.6823 222.724 69.7618 223.142 69.9176C223.56 70.0734 223.941 70.3319 224.286 70.6932C224.63 71.0511 224.907 71.54 225.116 72.1598C225.325 72.7796 225.429 73.5568 225.429 74.4915C225.429 75.3963 225.343 76.2 225.17 76.9027C225.001 77.602 224.756 78.192 224.435 78.6726C224.116 79.1532 223.729 79.5178 223.271 79.7663C222.817 80.0149 222.304 80.1392 221.73 80.1392C221.16 80.1392 220.651 80.0265 220.204 79.8011C219.76 79.5724 219.395 79.2559 219.11 78.8516C218.828 78.4439 218.648 77.9716 218.568 77.4347H219.781C219.891 77.902 220.108 78.2881 220.433 78.593C220.761 78.8946 221.193 79.0455 221.73 79.0455C222.516 79.0455 223.135 78.7024 223.589 78.0163C224.047 77.3303 224.276 76.3608 224.276 75.108H224.196C224.01 75.3864 223.79 75.6267 223.535 75.8288C223.28 76.031 222.996 76.1868 222.685 76.2962C222.373 76.4055 222.042 76.4602 221.69 76.4602C221.107 76.4602 220.572 76.3161 220.085 76.0277C219.601 75.736 219.213 75.3366 218.921 74.8295C218.633 74.3191 218.489 73.7358 218.489 73.0795C218.489 72.4564 218.628 71.8864 218.906 71.3693C219.188 70.849 219.582 70.4347 220.089 70.1264C220.6 69.8182 221.2 69.669 221.889 69.679ZM221.889 70.7727C221.472 70.7727 221.095 70.8771 220.761 71.0859C220.429 71.2914 220.166 71.5698 219.97 71.9212C219.778 72.2692 219.682 72.6553 219.682 73.0795C219.682 73.5038 219.775 73.8899 219.96 74.2379C220.149 74.5826 220.406 74.8577 220.731 75.0632C221.059 75.2654 221.432 75.3665 221.849 75.3665C222.164 75.3665 222.458 75.3052 222.729 75.1825C223.001 75.0566 223.238 74.8859 223.44 74.6705C223.646 74.4517 223.807 74.2048 223.923 73.9297C224.039 73.6513 224.097 73.3613 224.097 73.0597C224.097 72.6619 224 72.2891 223.808 71.9411C223.619 71.593 223.357 71.3113 223.023 71.0959C222.691 70.8804 222.313 70.7727 221.889 70.7727ZM230.626 69.679C231.043 69.6823 231.461 69.7618 231.878 69.9176C232.296 70.0734 232.677 70.3319 233.022 70.6932C233.367 71.0511 233.643 71.54 233.852 72.1598C234.061 72.7796 234.165 73.5568 234.165 74.4915C234.165 75.3963 234.079 76.2 233.907 76.9027C233.738 77.602 233.492 78.192 233.171 78.6726C232.853 79.1532 232.465 79.5178 232.008 79.7663C231.554 80.0149 231.04 80.1392 230.466 80.1392C229.896 80.1392 229.388 80.0265 228.94 79.8011C228.496 79.5724 228.131 79.2559 227.846 78.8516C227.565 78.4439 227.384 77.9716 227.305 77.4347H228.518C228.627 77.902 228.844 78.2881 229.169 78.593C229.497 78.8946 229.93 79.0455 230.466 79.0455C231.252 79.0455 231.872 78.7024 232.326 78.0163C232.783 77.3303 233.012 76.3608 233.012 75.108H232.932C232.747 75.3864 232.526 75.6267 232.271 75.8288C232.016 76.031 231.733 76.1868 231.421 76.2962C231.109 76.4055 230.778 76.4602 230.427 76.4602C229.843 76.4602 229.308 76.3161 228.821 76.0277C228.337 75.736 227.949 75.3366 227.657 74.8295C227.369 74.3191 227.225 73.7358 227.225 73.0795C227.225 72.4564 227.364 71.8864 227.643 71.3693C227.924 70.849 228.319 70.4347 228.826 70.1264C229.336 69.8182 229.936 69.669 230.626 69.679ZM230.626 70.7727C230.208 70.7727 229.832 70.8771 229.497 71.0859C229.166 71.2914 228.902 71.5698 228.706 71.9212C228.514 72.2692 228.418 72.6553 228.418 73.0795C228.418 73.5038 228.511 73.8899 228.697 74.2379C228.885 74.5826 229.142 74.8577 229.467 75.0632C229.795 75.2654 230.168 75.3665 230.586 75.3665C230.901 75.3665 231.194 75.3052 231.466 75.1825C231.738 75.0566 231.974 74.8859 232.177 74.6705C232.382 74.4517 232.543 74.2048 232.659 73.9297C232.775 73.6513 232.833 73.3613 232.833 73.0597C232.833 72.6619 232.737 72.2891 232.545 71.9411C232.356 71.593 232.094 71.3113 231.759 71.0959C231.428 70.8804 231.05 70.7727 230.626 70.7727ZM236.165 80L240.719 70.9915V70.9119H235.469V69.8182H241.992V70.9716L237.458 80H236.165ZM244.437 80L248.991 70.9915V70.9119H243.741V69.8182H250.263V70.9716L245.729 80H244.437ZM252.708 80L257.262 70.9915V70.9119H252.012V69.8182H258.535V70.9716L254.001 80H252.708ZM260.98 80L265.534 70.9915V70.9119H260.284V69.8182H266.806V70.9716L262.272 80H260.98Z" fill="#7C7C7C"/>
</g>
<defs>
<filter id="filter0_d_381_625" x="0" y="0" width="388" height="188" filterUnits="userSpaceOnUse" color-interpolation-filters="sRGB">
<feFlood flood-opacity="0" result="BackgroundImageFix"/>
<feColorMatrix in="SourceAlpha" type="matrix" values="0 0 0 0 0 0 0 0 0 0 0 0 0 0 0 0 0 0 127 0" result="hardAlpha"/>
<feOffset dx="-14" dy="14"/>
<feGaussianBlur stdDeviation="10"/>
<feComposite in2="hardAlpha" operator="out"/>
<feColorMatrix type="matrix" values="0 0 0 0 0 0 0 0 0 0 0 0 0 0 0 0 0 0 0.15 0"/>
<feBlend mode="normal" in2="BackgroundImageFix" result="effect1_dropShadow_381_625"/>
<feBlend mode="normal" in="SourceGraphic" in2="effect1_dropShadow_381_625" result="shape"/>
</filter>
</defs>
</svg>
